<svg width="100" height="100" viewBox="0 0 100 100" fill="none" xmlns="http://www.w3.org/2000/svg">
<circle cx="50" cy="50" r="50" fill="white"/>
<path d="M65.6489 51.4884H62.2461C62.5929 52.438 62.7824 53.4628 62.7824 54.5309V67.3915C62.7824 67.8368 62.7049 68.2643 62.5639 68.6618H68.1894C70.2909 68.6618 72.0004 66.9522 72.0004 64.8508V57.84C72.0005 54.3377 69.1512 51.4884 65.6489 51.4884Z" fill="url(#paint0_linear_1019_2171)"/>
<path d="M37.2181 54.5311C37.2181 53.4629 37.4076 52.4381 37.7544 51.4885H34.3516C30.8493 51.4885 28 54.3379 28 57.8402V64.851C28 66.9524 29.7096 68.662 31.811 68.662H37.4366C37.2956 68.2643 37.2181 67.8369 37.2181 67.3916V54.5311Z" fill="url(#paint1_linear_1019_2171)"/>
<path d="M53.8897 48.1794H46.1104C42.6081 48.1794 39.7588 51.0288 39.7588 54.5311V67.3916C39.7588 68.0931 40.3275 68.662 41.0291 68.662H58.971C59.6726 68.662 60.2413 68.0932 60.2413 67.3916V54.5311C60.2413 51.0288 57.392 48.1794 53.8897 48.1794Z" fill="url(#paint2_linear_1019_2171)"/>
<path d="M50 31.3378C45.788 31.3378 42.3613 34.7644 42.3613 38.9765C42.3613 41.8335 43.9382 44.3287 46.2669 45.6387C47.3715 46.26 48.6449 46.6151 50 46.6151C51.355 46.6151 52.6285 46.26 53.733 45.6387C56.0618 44.3287 57.6386 41.8334 57.6386 38.9765C57.6386 34.7645 54.2119 31.3378 50 31.3378Z" fill="url(#paint3_linear_1019_2171)"/>
<path d="M36.5867 38.4576C33.4367 38.4576 30.874 41.0203 30.874 44.1703C30.874 47.3204 33.4367 49.883 36.5867 49.883C37.3858 49.883 38.1467 49.7175 38.8379 49.42C40.0329 48.9055 41.0183 47.9947 41.628 46.8539C42.056 46.0532 42.2994 45.1398 42.2994 44.1703C42.2994 41.0204 39.7368 38.4576 36.5867 38.4576Z" fill="url(#paint4_linear_1019_2171)"/>
<path d="M63.4129 38.4576C60.2629 38.4576 57.7002 41.0203 57.7002 44.1703C57.7002 45.1399 57.9437 46.0533 58.3716 46.8539C58.9814 47.9948 59.9667 48.9056 61.1618 49.42C61.853 49.7175 62.6138 49.883 63.4129 49.883C66.5629 49.883 69.1256 47.3204 69.1256 44.1703C69.1256 41.0203 66.5629 38.4576 63.4129 38.4576Z" fill="url(#paint5_linear_1019_2171)"/>
<defs>
<linearGradient id="paint0_linear_1019_2171" x1="67.1233" y1="51.4884" x2="67.1233" y2="68.6618" gradientUnits="userSpaceOnUse">
<stop stop-color="#4BBBC3"/>
<stop offset="1" stop-color="#3FD1B0"/>
</linearGradient>
<linearGradient id="paint1_linear_1019_2171" x1="32.8772" y1="51.4885" x2="32.8772" y2="68.662" gradientUnits="userSpaceOnUse">
<stop stop-color="#4BBBC3"/>
<stop offset="1" stop-color="#3FD1B0"/>
</linearGradient>
<linearGradient id="paint2_linear_1019_2171" x1="50" y1="48.1794" x2="50" y2="68.662" gradientUnits="userSpaceOnUse">
<stop stop-color="#4BBBC3"/>
<stop offset="1" stop-color="#3FD1B0"/>
</linearGradient>
<linearGradient id="paint3_linear_1019_2171" x1="50" y1="31.3378" x2="50" y2="46.6151" gradientUnits="userSpaceOnUse">
<stop stop-color="#4BBBC3"/>
<stop offset="1" stop-color="#3FD1B0"/>
</linearGradient>
<linearGradient id="paint4_linear_1019_2171" x1="36.5867" y1="38.4576" x2="36.5867" y2="49.883" gradientUnits="userSpaceOnUse">
<stop stop-color="#4BBBC3"/>
<stop offset="1" stop-color="#3FD1B0"/>
</linearGradient>
<linearGradient id="paint5_linear_1019_2171" x1="63.4129" y1="38.4576" x2="63.4129" y2="49.883" gradientUnits="userSpaceOnUse">
<stop stop-color="#4BBBC3"/>
<stop offset="1" stop-color="#3FD1B0"/>
</linearGradient>
</defs>
</svg>
