<svg width="100" height="100" viewBox="0 0 100 100" fill="none" xmlns="http://www.w3.org/2000/svg">
<circle cx="50" cy="50" r="50" fill="white"/>
<path d="M41.5745 65.2657C41.546 65.5499 41.5705 65.8468 41.6741 66.1409C41.9271 66.8501 42.5208 67.4279 43.224 67.6457C43.8775 67.8522 44.5276 67.7147 44.7248 67.5003L46.0881 66.0373C46.4826 65.6157 46.5822 64.9416 46.3504 64.2875C45.78 63.1945 45.0157 62.8001 44.0369 62.6234L41.5745 65.2657Z" fill="url(#paint0_linear_1019_2197)"/>
<path d="M39.751 57.951L37.3683 60.5063C36.8842 61.0329 36.7454 61.8424 37.0157 62.618C37.3026 63.4374 37.9872 64.1041 38.8067 64.3532C39.5823 64.5856 40.3606 64.405 40.848 63.8863L43.054 61.5203C43.5414 60.995 43.6769 60.1895 43.4066 59.4139C43.1197 58.5905 42.4311 57.9264 41.6156 57.6787C40.9649 57.4709 40.2012 57.4629 39.751 57.951Z" fill="url(#paint1_linear_1019_2197)"/>
<path d="M35.0278 53.7464L32.8278 56.1084C32.343 56.631 32.2075 57.4432 32.4751 58.2215C32.762 59.0383 33.4467 59.705 34.2661 59.954C35.0404 60.1897 35.8266 60.0058 36.0717 59.7461L38.5141 57.1251C39.0015 56.5985 39.137 55.789 38.8667 55.0147C38.5785 54.1926 37.8939 53.5286 37.0744 53.2822C36.3207 53.0365 35.4866 53.255 35.0278 53.7464Z" fill="url(#paint2_linear_1019_2197)"/>
<path d="M30.724 49.0899L28.2856 51.7123C27.7982 52.2376 27.6627 53.0431 27.933 53.8147C28.2172 54.6408 28.9058 55.3049 29.7253 55.5539C30.4996 55.785 31.2845 55.6057 31.5269 55.3427L33.9719 52.7217V52.719C34.4593 52.2004 34.5948 51.3936 34.3245 50.6193C34.0417 49.7932 33.353 49.1291 32.5336 48.8828C31.9074 48.6669 31.1497 48.6298 30.724 49.0899Z" fill="url(#paint3_linear_1019_2197)"/>
<path d="M62.3809 33.4507C60.8038 34.3326 58.6117 34.4906 56.4768 34.644C54.8618 34.7542 53.1957 34.8711 51.9984 35.3134L45.3412 37.7697C45.296 37.7877 45.2502 37.7983 45.2024 37.8049C44.881 37.8554 44.5835 37.8985 44.3165 37.9357C42.6956 38.1642 42.5083 38.2339 42.3217 38.714C42.1517 39.1576 42.3383 39.7971 42.7992 40.3403C43.175 40.7865 44.6459 42.1797 47.672 41.4632L51.4631 40.9625C53.5861 40.6889 55.2881 42.0728 56.6474 43.1898L66.8427 51.3457L66.8507 51.3417C68.8661 50.4984 70.9659 49.4014 72.7509 47.2511L62.3809 33.4507Z" fill="url(#paint4_linear_1019_2197)"/>
<path d="M48.3528 32.9552C47.7485 33.0109 47.0559 33.0873 46.3294 33.163C42.3112 33.592 40.0833 33.7607 38.9498 33.5508L28.5181 47.1288C28.9019 47.4921 29.22 47.8693 29.4763 48.2776C30.3482 47.3852 31.6657 47.0664 32.9487 47.4542C34.2077 47.8341 35.2589 48.8547 35.6985 50.1211C35.8851 50.657 35.9436 51.2068 35.8958 51.7334C36.4104 51.661 36.9543 51.6909 37.4895 51.8543C38.7452 52.2315 39.8004 53.2548 40.2367 54.5211C40.426 55.0544 40.4857 55.6029 40.4406 56.1295C40.9552 56.0571 41.4991 56.0876 42.0343 56.2543C43.2874 56.6342 44.3379 57.6548 44.7775 58.9145C45.0538 59.7134 45.0644 60.5355 44.84 61.2726C44.9681 61.2972 45.0996 61.3284 45.2304 61.3696C46.3547 61.7182 47.3096 62.6419 47.7206 63.7808C48.1124 64.8831 47.9424 66.0412 47.299 66.8726L49.1497 68.3528C49.6026 68.7121 50.2627 68.7512 50.8789 68.4524C51.5469 68.1283 52.0516 67.4703 52.2004 66.7338C52.2628 66.4264 52.2422 66.1282 52.1718 65.852L49.8244 63.974C49.509 63.721 49.4532 63.2542 49.6995 62.9301C49.9486 62.6087 50.4054 62.5489 50.7228 62.8019L53.5451 65.0637C53.8253 65.2882 54.6282 65.3479 55.3646 65.0013C56.1389 64.6314 56.7239 63.8691 56.886 63.0184C57.0414 62.2142 56.7923 61.4346 56.2385 60.9884L53.6859 58.9457C53.3678 58.6927 53.312 58.2246 53.561 57.9045C53.8074 57.5791 54.2669 57.5194 54.5817 57.7763L58.2924 60.744C58.8503 61.1876 59.6518 61.2487 60.3922 60.9034C61.1599 60.5362 61.7449 59.7752 61.9109 58.9152C62.0663 58.111 61.8173 57.3341 61.2575 56.8838L57.5454 53.9202C57.2273 53.6645 57.1715 53.1977 57.4205 52.8709C57.6696 52.5509 58.1264 52.4951 58.4452 52.7474C58.4452 52.7474 64.0817 57.2544 64.0857 57.2544C64.3659 57.4749 65.1648 57.5373 65.8979 57.1867C66.6735 56.8247 67.2546 56.0637 67.4233 55.2064C67.576 54.4009 67.327 53.6187 66.7698 53.1764L55.7378 44.3478C54.4721 43.3098 53.1646 42.2347 51.6459 42.4386L47.9311 42.9233C45.427 43.525 43.0649 42.93 41.699 41.315C40.8755 40.3422 40.5953 39.1389 40.9652 38.1713C41.4838 36.8293 42.4772 36.6905 44.1168 36.4594C44.3618 36.4282 44.6255 36.3897 44.9157 36.3439L51.5044 33.9134C51.9328 33.754 52.4069 33.6438 52.8976 33.5462C51.2036 32.8908 49.9758 32.8516 48.3528 32.9552Z" fill="url(#paint5_linear_1019_2197)"/>
<path d="M34.0342 30.382C32.8342 30.291 31.7385 31.1954 30.1614 33.2494L26.1279 38.5034C24.6689 40.3986 24.1224 41.5773 24.2433 42.5761C24.3402 43.3968 24.9113 44.2023 25.4778 44.6566L27.3909 46.1846L37.7801 32.6623L36.4354 31.5859C35.511 30.8488 34.754 30.4377 34.0342 30.382Z" fill="url(#paint6_linear_1019_2197)"/>
<path d="M67.3487 30.3681C66.6289 30.4133 65.8652 30.8157 64.9335 31.5422L63.5742 32.5967L73.8193 46.2291L75.1434 45.1992C76.2889 44.3107 76.8733 43.5158 76.9802 42.6957C77.1124 41.6996 76.5831 40.5116 75.1474 38.5918L71.1797 33.2873C69.6337 31.2121 68.552 30.2911 67.3487 30.3681Z" fill="url(#paint7_linear_1019_2197)"/>
<defs>
<linearGradient id="paint0_linear_1019_2197" x1="44.0185" y1="62.6234" x2="44.0185" y2="67.7476" gradientUnits="userSpaceOnUse">
<stop stop-color="#00BBFF"/>
<stop offset="0.9999" stop-color="#007DFF"/>
<stop offset="1" stop-opacity="0"/>
</linearGradient>
<linearGradient id="paint1_linear_1019_2197" x1="40.2115" y1="57.5442" x2="40.2115" y2="64.453" gradientUnits="userSpaceOnUse">
<stop stop-color="#00BBFF"/>
<stop offset="0.9999" stop-color="#007DFF"/>
<stop offset="1" stop-opacity="0"/>
</linearGradient>
<linearGradient id="paint2_linear_1019_2197" x1="35.6718" y1="53.1808" x2="35.6718" y2="60.0627" gradientUnits="userSpaceOnUse">
<stop stop-color="#00BBFF"/>
<stop offset="0.9999" stop-color="#007DFF"/>
<stop offset="1" stop-opacity="0"/>
</linearGradient>
<linearGradient id="paint3_linear_1019_2197" x1="31.1288" y1="48.7288" x2="31.1288" y2="55.6604" gradientUnits="userSpaceOnUse">
<stop stop-color="#00BBFF"/>
<stop offset="0.9999" stop-color="#007DFF"/>
<stop offset="1" stop-opacity="0"/>
</linearGradient>
<linearGradient id="paint4_linear_1019_2197" x1="57.5053" y1="33.4507" x2="57.5053" y2="51.3457" gradientUnits="userSpaceOnUse">
<stop stop-color="#00BBFF"/>
<stop offset="0.9999" stop-color="#007DFF"/>
<stop offset="1" stop-opacity="0"/>
</linearGradient>
<linearGradient id="paint5_linear_1019_2197" x1="47.9928" y1="32.9116" x2="47.9928" y2="68.6521" gradientUnits="userSpaceOnUse">
<stop stop-color="#00BBFF"/>
<stop offset="0.9999" stop-color="#007DFF"/>
<stop offset="1" stop-opacity="0"/>
</linearGradient>
<linearGradient id="paint6_linear_1019_2197" x1="31.0036" y1="30.3757" x2="31.0036" y2="46.1846" gradientUnits="userSpaceOnUse">
<stop stop-color="#00BBFF"/>
<stop offset="0.9999" stop-color="#007DFF"/>
<stop offset="1" stop-opacity="0"/>
</linearGradient>
<linearGradient id="paint7_linear_1019_2197" x1="70.287" y1="30.3636" x2="70.287" y2="46.2291" gradientUnits="userSpaceOnUse">
<stop stop-color="#00BBFF"/>
<stop offset="0.9999" stop-color="#007DFF"/>
<stop offset="1" stop-opacity="0"/>
</linearGradient>
</defs>
</svg>
