<svg width="218" height="193" viewBox="0 0 218 193" fill="none" xmlns="http://www.w3.org/2000/svg">
<g clipPath="url(#clip0_591_311)">
<path d="M189.924 186.015V166.89C189.924 166.89 197.32 180.449 189.924 186.015Z" fill="#F1F1F1"/>
<path d="M190.38 186.012L176.4 173.078C176.4 173.078 191.313 176.757 190.38 186.012Z" fill="#F1F1F1"/>
<path d="M27.9276 186.015V166.89C27.9276 166.89 20.5319 180.449 27.9276 186.015Z" fill="#F1F1F1"/>
<path d="M27.4717 186.012L41.4514 173.078C41.4514 173.078 26.5389 176.757 27.4717 186.012Z" fill="#F1F1F1"/>
<path d="M154.975 44.1654H153.961V16.1909C153.961 14.0647 153.546 11.9593 152.739 9.99492C151.931 8.03055 150.748 6.24568 149.256 4.74221C147.764 3.23875 145.993 2.04613 144.044 1.23246C142.095 0.418793 140.006 1.73603e-06 137.896 0H79.0886C76.9789 -4.51355e-06 74.8899 0.418781 72.9408 1.23245C70.9916 2.04611 69.2206 3.23872 67.7288 4.74218C66.237 6.24564 65.0537 8.03051 64.2463 9.99488C63.439 11.9592 63.0234 14.0646 63.0234 16.1909V169.661C63.0234 173.955 64.716 178.074 67.7288 181.11C70.7416 184.146 74.8279 185.852 79.0886 185.852H137.896C142.157 185.852 146.243 184.146 149.256 181.11C152.269 178.074 153.961 173.956 153.961 169.661V64.0782H154.975V44.1654Z" fill="#3F3D56"/>
<path d="M138.545 4.21192H130.869C131.222 5.08417 131.357 6.03053 131.261 6.96764C131.166 7.90474 130.843 8.80382 130.322 9.58568C129.801 10.3675 129.096 11.0082 128.271 11.4512C127.447 11.8941 126.526 12.1259 125.592 12.126H91.9014C90.9667 12.1259 90.0463 11.8942 89.2214 11.4512C88.3965 11.0082 87.6924 10.3675 87.171 9.58568C86.6496 8.80382 86.327 7.90473 86.2317 6.96763C86.1363 6.03053 86.271 5.08417 86.6241 4.21191H79.4543C76.2725 4.21191 73.2209 5.4858 70.971 7.75333C68.721 10.0209 67.457 13.0963 67.457 16.3031V169.548C67.457 171.136 67.7673 172.709 68.3703 174.176C68.9732 175.642 69.8569 176.975 70.971 178.098C72.085 179.221 73.4076 180.112 74.8632 180.719C76.3187 181.327 77.8788 181.64 79.4543 181.64H138.545C140.121 181.64 141.681 181.327 143.136 180.719C144.592 180.112 145.915 179.221 147.029 178.098C148.143 176.975 149.026 175.643 149.629 174.176C150.232 172.709 150.543 171.136 150.543 169.548V16.3031C150.543 14.7153 150.232 13.143 149.629 11.676C149.026 10.209 148.143 8.87611 147.029 7.75334C145.915 6.63057 144.592 5.73994 143.136 5.1323C141.681 4.52466 140.121 4.21192 138.545 4.21192Z" fill="white"/>
<path d="M137.065 179.009H80.9349C74.4854 179.009 69.2383 174.289 69.2383 168.488V160.87C69.2383 156.246 73.417 152.484 78.5533 152.484H139.447C144.583 152.484 148.762 156.246 148.762 160.87V168.488C148.762 174.289 143.515 179.009 137.065 179.009Z" fill="#E5E5E5"/>
<path d="M86.8353 50.9859H74.3147C74.0905 50.9856 73.8754 50.8957 73.7168 50.7359C73.5582 50.576 73.469 50.3593 73.4688 50.1333V37.5147C73.469 37.2887 73.5582 37.072 73.7168 36.9121C73.8754 36.7523 74.0905 36.6624 74.3147 36.6621H86.8353C87.0596 36.6624 87.2746 36.7523 87.4332 36.9121C87.5918 37.072 87.681 37.2887 87.6813 37.5147V50.1333C87.681 50.3593 87.5918 50.576 87.4332 50.7359C87.2746 50.8957 87.0596 50.9856 86.8353 50.9859Z" fill="#84CDC1"/>
<path d="M105.785 50.9859H93.2639C93.0397 50.9856 92.8246 50.8957 92.666 50.7359C92.5074 50.576 92.4182 50.3593 92.418 50.1333V37.5147C92.4182 37.2887 92.5074 37.072 92.666 36.9121C92.8246 36.7523 93.0397 36.6624 93.2639 36.6621H105.785C106.009 36.6624 106.224 36.7523 106.382 36.9121C106.541 37.072 106.63 37.2887 106.63 37.5147V50.1333C106.63 50.3593 106.541 50.576 106.382 50.7359C106.224 50.8957 106.009 50.9856 105.785 50.9859Z" fill="#E5E5E5"/>
<path d="M124.736 50.9859H112.215C111.991 50.9856 111.776 50.8957 111.617 50.7359C111.459 50.576 111.369 50.3593 111.369 50.1333V37.5147C111.369 37.2887 111.459 37.072 111.617 36.9121C111.776 36.7523 111.991 36.6624 112.215 36.6621H124.736C124.96 36.6624 125.175 36.7523 125.334 36.9121C125.492 37.072 125.581 37.2887 125.582 37.5147V50.1333C125.581 50.3593 125.492 50.576 125.334 50.7359C125.175 50.8957 124.96 50.9856 124.736 50.9859Z" fill="#E5E5E5"/>
<path d="M143.685 50.9859H131.164C130.94 50.9856 130.725 50.8957 130.566 50.7359C130.408 50.576 130.319 50.3593 130.318 50.1333V37.5147C130.319 37.2887 130.408 37.072 130.566 36.9121C130.725 36.7523 130.94 36.6624 131.164 36.6621H143.685C143.909 36.6624 144.124 36.7523 144.283 36.9121C144.441 37.072 144.531 37.2887 144.531 37.5147V50.1333C144.531 50.3593 144.441 50.576 144.283 50.7359C144.124 50.8957 143.909 50.9856 143.685 50.9859Z" fill="#E5E5E5"/>
<path d="M86.7904 74.3472H74.2698C74.0455 74.3469 73.8305 74.257 73.6719 74.0972C73.5133 73.9374 73.4241 73.7206 73.4238 73.4946V60.876C73.4241 60.65 73.5133 60.4333 73.6719 60.2735C73.8305 60.1136 74.0455 60.0237 74.2698 60.0234H86.7904C87.0147 60.0237 87.2297 60.1136 87.3883 60.2735C87.5469 60.4333 87.6361 60.65 87.6364 60.876V73.4946C87.6361 73.7206 87.5469 73.9374 87.3883 74.0972C87.2297 74.257 87.0147 74.3469 86.7904 74.3472Z" fill="#E5E5E5"/>
<path d="M105.74 74.3472H93.219C92.9947 74.3469 92.7797 74.257 92.6211 74.0972C92.4625 73.9374 92.3733 73.7206 92.373 73.4946V60.876C92.3733 60.65 92.4625 60.4333 92.6211 60.2735C92.7797 60.1136 92.9947 60.0237 93.219 60.0234H105.74C105.964 60.0237 106.179 60.1136 106.338 60.2735C106.496 60.4333 106.585 60.65 106.586 60.876V73.4946C106.585 73.7206 106.496 73.9374 106.338 74.0972C106.179 74.257 105.964 74.3469 105.74 74.3472Z" fill="#E5E5E5"/>
<path d="M124.691 74.3472H112.17C111.946 74.3469 111.731 74.257 111.572 74.0972C111.414 73.9374 111.324 73.7206 111.324 73.4946V60.876C111.324 60.65 111.414 60.4333 111.572 60.2735C111.731 60.1136 111.946 60.0237 112.17 60.0234H124.691C124.915 60.0237 125.13 60.1136 125.289 60.2735C125.447 60.4333 125.537 60.65 125.537 60.876V73.4946C125.537 73.7206 125.447 73.9374 125.289 74.0972C125.13 74.257 124.915 74.3469 124.691 74.3472Z" fill="#84CDC1"/>
<path d="M143.64 74.3472H131.119C130.895 74.3469 130.68 74.257 130.522 74.0972C130.363 73.9374 130.274 73.7206 130.273 73.4946V60.876C130.274 60.65 130.363 60.4333 130.522 60.2735C130.68 60.1136 130.895 60.0237 131.119 60.0234H143.64C143.864 60.0237 144.079 60.1136 144.238 60.2735C144.397 60.4333 144.486 60.65 144.486 60.876V73.4946C144.486 73.7206 144.397 73.9374 144.238 74.0972C144.079 74.257 143.864 74.3469 143.64 74.3472Z" fill="#84CDC1"/>
<path d="M86.7455 97.7085H74.2249C74.0006 97.7083 73.7856 97.6184 73.627 97.4585C73.4684 97.2987 73.3792 97.082 73.3789 96.8559V84.2374C73.3792 84.0113 73.4684 83.7946 73.627 83.6348C73.7856 83.4749 74.0006 83.385 74.2249 83.3848H86.7455C86.9698 83.385 87.1848 83.4749 87.3434 83.6348C87.502 83.7946 87.5912 84.0113 87.5915 84.2374V96.8559C87.5912 97.082 87.502 97.2987 87.3434 97.4585C87.1848 97.6184 86.9698 97.7083 86.7455 97.7085Z" fill="#E5E5E5"/>
<path d="M105.697 97.7085H93.1761C92.9518 97.7083 92.7367 97.6184 92.5781 97.4585C92.4196 97.2987 92.3303 97.082 92.3301 96.8559V84.2374C92.3303 84.0113 92.4196 83.7946 92.5781 83.6348C92.7367 83.4749 92.9518 83.385 93.1761 83.3848H105.697C105.921 83.385 106.136 83.4749 106.295 83.6348C106.453 83.7946 106.542 84.0113 106.543 84.2374V96.8559C106.542 97.082 106.453 97.2987 106.295 97.4585C106.136 97.6184 105.921 97.7083 105.697 97.7085Z" fill="#E5E5E5"/>
<path d="M124.646 97.7085H112.125C111.901 97.7083 111.686 97.6184 111.527 97.4585C111.369 97.2987 111.28 97.082 111.279 96.8559V84.2374C111.28 84.0113 111.369 83.7946 111.527 83.6348C111.686 83.4749 111.901 83.385 112.125 83.3848H124.646C124.87 83.385 125.085 83.4749 125.244 83.6348C125.402 83.7946 125.492 84.0113 125.492 84.2374V96.8559C125.492 97.082 125.402 97.2987 125.244 97.4585C125.085 97.6184 124.87 97.7083 124.646 97.7085Z" fill="#E5E5E5"/>
<path d="M143.595 97.7085H131.075C130.85 97.7083 130.635 97.6184 130.477 97.4585C130.318 97.2987 130.229 97.082 130.229 96.8559V84.2374C130.229 84.0113 130.318 83.7946 130.477 83.6348C130.635 83.4749 130.85 83.385 131.075 83.3848H143.595C143.819 83.385 144.034 83.4749 144.193 83.6348C144.352 83.7946 144.441 84.0113 144.441 84.2374V96.8559C144.441 97.082 144.352 97.2987 144.193 97.4585C144.034 97.6184 143.819 97.7083 143.595 97.7085Z" fill="#E5E5E5"/>
<path d="M86.7005 121.07H74.18C73.9557 121.07 73.7407 120.98 73.5821 120.82C73.4235 120.66 73.3342 120.443 73.334 120.217V107.599C73.3342 107.373 73.4235 107.156 73.5821 106.996C73.7407 106.836 73.9557 106.746 74.18 106.746H86.7005C86.9248 106.746 87.1399 106.836 87.2984 106.996C87.457 107.156 87.5463 107.373 87.5465 107.599V120.217C87.5463 120.443 87.457 120.66 87.2984 120.82C87.1399 120.98 86.9248 121.07 86.7005 121.07Z" fill="#E5E5E5"/>
<path d="M105.652 121.07H93.1311C92.9068 121.07 92.6918 120.98 92.5332 120.82C92.3746 120.66 92.2854 120.443 92.2852 120.217V107.599C92.2854 107.373 92.3746 107.156 92.5332 106.996C92.6918 106.836 92.9068 106.746 93.1311 106.746H105.652C105.876 106.746 106.091 106.836 106.25 106.996C106.408 107.156 106.497 107.373 106.498 107.599V120.217C106.497 120.443 106.408 120.66 106.25 120.82C106.091 120.98 105.876 121.07 105.652 121.07Z" fill="#E5E5E5"/>
<path d="M124.601 121.07H112.08C111.856 121.07 111.641 120.98 111.482 120.82C111.324 120.66 111.235 120.443 111.234 120.217V107.599C111.235 107.373 111.324 107.156 111.482 106.996C111.641 106.836 111.856 106.746 112.08 106.746H124.601C124.825 106.746 125.04 106.836 125.199 106.996C125.357 107.156 125.447 107.373 125.447 107.599V120.217C125.447 120.443 125.357 120.66 125.199 120.82C125.04 120.98 124.825 121.07 124.601 121.07Z" fill="#E5E5E5"/>
<path d="M143.55 121.07H131.03C130.805 121.07 130.59 120.98 130.432 120.82C130.273 120.66 130.184 120.443 130.184 120.217V107.599C130.184 107.373 130.273 107.156 130.432 106.996C130.59 106.836 130.805 106.746 131.03 106.746H143.55C143.774 106.746 143.989 106.836 144.148 106.996C144.307 107.156 144.396 107.373 144.396 107.599V120.217C144.396 120.443 144.307 120.66 144.148 120.82C143.989 120.98 143.774 121.07 143.55 121.07Z" fill="#E5E5E5"/>
<path d="M86.8353 173.25H74.3147C74.0905 173.249 73.8754 173.159 73.7168 173C73.5582 172.84 73.469 172.623 73.4688 172.397V159.778C73.469 159.552 73.5582 159.336 73.7168 159.176C73.8754 159.016 74.0905 158.926 74.3147 158.926H86.8353C87.0596 158.926 87.2746 159.016 87.4332 159.176C87.5918 159.336 87.681 159.552 87.6813 159.778V172.397C87.681 172.623 87.5918 172.84 87.4332 173C87.2746 173.159 87.0596 173.249 86.8353 173.25Z" fill="white"/>
<path d="M105.785 173.25H93.2639C93.0397 173.249 92.8246 173.159 92.666 173C92.5074 172.84 92.4182 172.623 92.418 172.397V159.778C92.4182 159.552 92.5074 159.336 92.666 159.176C92.8246 159.016 93.0397 158.926 93.2639 158.926H105.785C106.009 158.926 106.224 159.016 106.382 159.176C106.541 159.336 106.63 159.552 106.63 159.778V172.397C106.63 172.623 106.541 172.84 106.382 173C106.224 173.159 106.009 173.249 105.785 173.25Z" fill="white"/>
<path d="M124.736 173.25H112.215C111.991 173.249 111.776 173.159 111.617 173C111.459 172.84 111.369 172.623 111.369 172.397V159.778C111.369 159.552 111.459 159.336 111.617 159.176C111.776 159.016 111.991 158.926 112.215 158.926H124.736C124.96 158.926 125.175 159.016 125.334 159.176C125.492 159.336 125.581 159.552 125.582 159.778V172.397C125.581 172.623 125.492 172.84 125.334 173C125.175 173.159 124.96 173.249 124.736 173.25Z" fill="white"/>
<path d="M143.685 173.25H131.164C130.94 173.249 130.725 173.159 130.566 173C130.408 172.84 130.319 172.623 130.318 172.397V159.778C130.319 159.552 130.408 159.336 130.566 159.176C130.725 159.016 130.94 158.926 131.164 158.926H143.685C143.909 158.926 144.124 159.016 144.283 159.176C144.441 159.336 144.531 159.552 144.531 159.778V172.397C144.531 172.623 144.441 172.84 144.283 173C144.124 173.159 143.909 173.249 143.685 173.25Z" fill="white"/>
<path d="M102.864 146.648C103.798 146.648 104.556 145.884 104.556 144.943C104.556 144.001 103.798 143.237 102.864 143.237C101.929 143.237 101.172 144.001 101.172 144.943C101.172 145.884 101.929 146.648 102.864 146.648Z" fill="#E5E5E5"/>
<path d="M108.956 146.648C109.89 146.648 110.648 145.884 110.648 144.943C110.648 144.001 109.89 143.237 108.956 143.237C108.021 143.237 107.264 144.001 107.264 144.943C107.264 145.884 108.021 146.648 108.956 146.648Z" fill="#E5E5E5"/>
<path d="M115.045 146.648C115.98 146.648 116.737 145.884 116.737 144.943C116.737 144.001 115.98 143.237 115.045 143.237C114.111 143.237 113.354 144.001 113.354 144.943C113.354 145.884 114.111 146.648 115.045 146.648Z" fill="#E5E5E5"/>
<path d="M217.738 186.128H0.262335C0.192759 186.128 0.126033 186.101 0.0768358 186.051C0.0276385 186.001 0 185.934 0 185.864C0 185.794 0.0276385 185.727 0.0768358 185.677C0.126033 185.627 0.192759 185.6 0.262335 185.6H217.738C217.807 185.6 217.874 185.627 217.923 185.677C217.972 185.727 218 185.794 218 185.864C218 185.934 217.972 186.001 217.923 186.051C217.874 186.101 217.807 186.128 217.738 186.128Z" fill="#CBCBCB"/>
<path d="M85.6173 134.071C85.9712 133.714 86.2433 133.284 86.4143 132.81C86.5854 132.336 86.6512 131.83 86.6072 131.328C86.5632 130.825 86.4104 130.339 86.1596 129.902C85.9088 129.466 85.5661 129.09 85.1557 128.801L88.4599 117.002L82.4356 118.933L80.2214 129.842C79.7861 130.569 79.6306 131.432 79.7843 132.266C79.938 133.101 80.3903 133.85 81.0554 134.372C81.7205 134.893 82.5523 135.15 83.393 135.095C84.2338 135.04 85.0252 134.675 85.6173 134.071Z" fill="#FFB7B7"/>
<path d="M87.3296 126.839C87.222 126.86 87.1125 126.869 87.003 126.867L81.2238 126.75C81.0063 126.746 80.7923 126.695 80.5959 126.6C80.3995 126.506 80.2253 126.371 80.0848 126.203C79.9443 126.036 79.8409 125.84 79.7813 125.63C79.7217 125.419 79.7073 125.197 79.7392 124.981L85.6017 85.0605C85.7767 83.9059 86.3557 82.8524 87.234 82.0903C88.1124 81.3283 89.2322 80.9079 90.3912 80.9053C91.123 80.9071 91.8449 81.0765 92.5022 81.4007C93.1595 81.7249 93.7352 82.1953 94.1857 82.7766C94.6362 83.3578 94.9497 84.0346 95.1027 84.7558C95.2557 85.4771 95.244 86.2239 95.0686 86.94L90.9131 103.902L88.5565 125.492C88.5223 125.82 88.3846 126.127 88.1637 126.37C87.9428 126.612 87.6504 126.777 87.3296 126.839Z" fill="#3F3D56"/>
<path d="M89.7466 189.858H92.9628L94.493 177.355L89.7461 177.356L89.7466 189.858Z" fill="#FFB7B7"/>
<path d="M88.9258 188.8L95.2596 188.8H95.2599C96.3304 188.8 97.357 189.228 98.1139 189.991C98.8709 190.754 99.2962 191.789 99.2963 192.868V193L88.926 193L88.9258 188.8Z" fill="#2F2E41"/>
<path d="M103.461 188.805L106.657 189.166L109.56 176.914L104.843 176.381L103.461 188.805Z" fill="#FFB7B7"/>
<path d="M102.761 187.661L109.056 188.372L109.056 188.372C110.12 188.493 111.092 189.034 111.76 189.877C112.428 190.72 112.736 191.796 112.617 192.868L112.603 193L102.297 191.835L102.761 187.661Z" fill="#2F2E41"/>
<path d="M86.7273 120.284C86.7273 120.284 82.318 130.122 86.2118 136.512L88.5316 186.261H93.8578L99.025 146.074L108.207 157.971L102.613 185.739L109.127 186.108L118.175 157.971C118.175 157.971 111.224 126.946 108.928 126.199L107.42 119.106L86.7273 120.284Z" fill="#2F2E41"/>
<path d="M84.7648 128.921C84.7648 128.921 80.7926 133.515 91.286 135.102C101.779 136.688 112.797 134.309 113.06 131.136C113.322 127.963 84.7648 128.921 84.7648 128.921Z" fill="#CBCBCB"/>
<path d="M137.367 71.9272C137.351 72.3757 137.237 72.8151 137.034 73.2146C136.831 73.614 136.544 73.9637 136.192 74.2391C135.84 74.5145 135.433 74.7088 134.999 74.8084C134.565 74.908 134.114 74.9105 133.679 74.8156L129.712 80.5804L125.648 79.0055L131.363 70.9438C131.57 70.2175 132.034 69.5928 132.667 69.1881C133.3 68.7834 134.058 68.6268 134.799 68.748C135.539 68.8692 136.209 69.2598 136.682 69.8457C137.155 70.4317 137.399 71.1723 137.367 71.9272Z" fill="#FFB7B7"/>
<path d="M103.822 79.344L98.2137 76.7871L91.0285 77.3048C91.0285 77.3048 82.3661 87.5118 85.7764 97.2941L83.6777 131.4C97.0568 135.102 103.139 128.159 112.797 131.136L109.814 93.2307L103.822 79.344Z" fill="#3F3D56"/>
<path d="M100.074 81.8279L103.822 79.3444C103.822 79.3444 109.029 78.5512 111.11 80.5861C111.11 80.5861 118.174 81.182 119.88 82.9591L121.758 83.3858L127.998 75.2422L131.817 77.3333L126.308 92.4034L109.814 93.231L100.074 81.8279Z" fill="#3F3D56"/>
<path d="M101.367 73.9194C105.657 71.556 107.234 66.1351 104.889 61.8116C102.544 57.4881 97.165 55.8992 92.875 58.2626C88.5851 60.626 87.0085 66.0469 89.3536 70.3704C91.6987 74.6939 97.0774 76.2828 101.367 73.9194Z" fill="#FFB7B7"/>
<path d="M89.4641 59.1156C91.0442 56.2513 93.0188 54.3967 96.2699 54.4637C99.521 54.5306 102.333 54.4011 103.796 57.328C104.183 56.5985 104.376 55.7809 104.358 54.954C104.8 55.243 105.148 55.656 105.36 56.142C105.571 56.628 105.637 57.1658 105.549 57.689C105.833 57.5211 106.072 57.2839 106.242 56.9991C106.412 56.7143 106.508 56.3911 106.522 56.059C107.607 56.4229 107.889 57.964 107.34 58.9749C106.791 59.9859 105.714 60.5705 104.681 61.0647C103.648 61.5588 104.125 64.1726 103.45 65.1031C102.979 65.7526 102.764 66.5485 102.447 67.2865C102.434 67.3157 102.411 67.3395 102.383 67.3541C101.655 67.7629 101.196 68.4932 101.325 69.3226C101.34 69.3847 101.336 69.4501 101.314 69.5102C100.393 71.2586 99.3994 73.0878 97.7302 74.1311C96.3909 74.9462 94.7867 75.1961 93.2657 74.8267C91.5596 74.4155 90.0846 73.2756 89.0211 71.8696C87.9575 70.4637 87.2734 68.8021 86.7594 67.1118C86.3034 65.6123 85.9717 64.0091 86.3333 62.4837C86.6949 60.9584 87.9197 59.5459 89.4714 59.428" fill="#2F2E41"/>
</g>
<defs>
<clipPath id="clip0_591_311">
<rect width="218" height="193" fill="white"/>
</clipPath>
</defs>
</svg>
