<svg width="257" height="224" viewBox="0 0 257 224" fill="none" xmlns="http://www.w3.org/2000/svg">
<g clipPath="url(#clip0_591_291)">
<path d="M239.498 223.746V199.479C239.498 199.479 248.961 216.683 239.498 223.746Z" fill="#F1F1F1"/>
<path d="M240.082 223.741L222.193 207.33C222.193 207.33 241.275 211.998 240.082 223.741Z" fill="#F1F1F1"/>
<path d="M90.7077 43.2006H89.7081V15.8372C89.7081 11.6369 88.0385 7.60866 85.0664 4.63861C82.0944 1.66856 78.0634 2.66911e-06 73.8603 0H15.8479C13.7668 -4.84579e-06 11.706 0.409631 9.7832 1.20552C7.86044 2.00141 6.11338 3.16797 4.64177 4.63859C3.17015 6.1092 2.0028 7.85508 1.20636 9.77654C0.409926 11.698 3.52662e-06 13.7574 0 15.8372V165.955C-3.56116e-06 170.155 1.66968 174.184 4.64173 177.154C7.61379 180.124 11.6448 181.792 15.8479 181.792H73.8602C78.0633 181.792 82.0943 180.124 85.0663 177.154C88.0384 174.184 89.7081 170.155 89.7081 165.955V62.6784H90.7077V43.2006Z" fill="#3F3D56"/>
<path d="M74.4998 4.12013H66.9273C67.2755 4.97332 67.4084 5.89901 67.3143 6.81564C67.2203 7.73227 66.902 8.61171 66.3877 9.37649C65.8734 10.1413 65.1788 10.7679 64.365 11.2012C63.5513 11.6345 62.6434 11.8612 61.7213 11.8613H28.4868C27.5647 11.8612 26.6568 11.6345 25.8431 11.2012C25.0293 10.7679 24.3347 10.1413 23.8204 9.37649C23.3061 8.61171 22.9879 7.73227 22.8938 6.81564C22.7997 5.899 22.9326 4.97331 23.2809 4.12012H16.2081C14.6539 4.12011 13.1149 4.42603 11.679 5.02039C10.2431 5.61475 8.93845 6.48592 7.83946 7.58416C6.74047 8.68241 5.86871 9.98621 5.27394 11.4211C4.67917 12.8561 4.37305 14.394 4.37305 15.9471V165.845C4.37305 167.398 4.67916 168.936 5.27393 170.371C5.86869 171.806 6.74046 173.11 7.83944 174.208C8.93842 175.306 10.2431 176.177 11.679 176.772C13.1149 177.366 14.6539 177.672 16.2081 177.672H74.4998C77.6386 177.672 80.6489 176.426 82.8684 174.208C85.0879 171.99 86.3348 168.982 86.3348 165.845V15.9472C86.3348 14.394 86.0287 12.8561 85.4339 11.4212C84.8392 9.98623 83.9674 8.68243 82.8684 7.58418C81.7694 6.48594 80.4648 5.61476 79.0289 5.0204C77.593 4.42604 76.054 4.12012 74.4998 4.12013Z" fill="white"/>
<path d="M45.3531 115.961C61.0089 115.961 73.7004 103.278 73.7004 87.6328C73.7004 71.9876 61.0089 59.3047 45.3531 59.3047C29.6974 59.3047 17.0059 71.9876 17.0059 87.6328C17.0059 103.278 29.6974 115.961 45.3531 115.961Z" fill="#84CDC1"/>
<path d="M53.7533 89.5688L46.7039 96.8248C46.5505 96.9792 46.3672 97.1008 46.1652 97.1822C45.9632 97.2635 45.7468 97.3028 45.529 97.2978H45.5056C45.2874 97.3025 45.0705 97.2631 44.868 97.1818C44.6655 97.1005 44.4815 96.979 44.3273 96.8248L37.2813 89.5688C37.2579 89.542 37.231 89.5185 37.2074 89.495C36.9262 89.1936 36.7761 88.793 36.7899 88.3811C36.8038 87.9692 36.9805 87.5797 37.2813 87.2978C37.6031 86.9955 38.0281 86.8273 38.4697 86.8273C38.9112 86.8273 39.3362 86.9955 39.658 87.2978L43.8339 91.6587V80.4142C43.8533 79.9811 44.0392 79.5721 44.3528 79.2725C44.6663 78.9729 45.0835 78.8057 45.5173 78.8057C45.9512 78.8057 46.3683 78.9729 46.6819 79.2725C46.9954 79.5721 47.1813 79.9811 47.2007 80.4142V91.6587L51.3734 87.2978C51.6958 86.9955 52.1213 86.8273 52.5633 86.8273C53.0054 86.8273 53.4309 86.9955 53.7533 87.2978C53.7769 87.3212 53.8004 87.3447 53.8272 87.3716C54.1077 87.6734 54.2573 88.0738 54.2435 88.4854C54.2296 88.897 54.0534 89.2865 53.7533 89.5688Z" fill="white"/>
<path d="M198.14 219.149L194.024 219.148L192.066 203.285L198.14 203.285L198.14 219.149Z" fill="#9F616A"/>
<path d="M199.19 223.134L185.92 223.134V222.966C185.92 221.597 186.464 220.284 187.433 219.317C188.401 218.349 189.715 217.805 191.085 217.805H191.085L199.19 217.805L199.19 223.134Z" fill="#2F2E41"/>
<path d="M166.876 219.013L162.9 217.95L165.109 202.12L170.977 203.688L166.876 219.013Z" fill="#9F616A"/>
<path d="M166.859 223.135L154.039 219.709L154.082 219.547C154.436 218.225 155.301 217.097 156.487 216.412C157.673 215.727 159.083 215.54 160.406 215.894L160.407 215.894L168.236 217.986L166.859 223.135Z" fill="#2F2E41"/>
<path d="M200.508 130.248L203.955 134.25L199.497 215.579H189.974L185.173 152.999L170.287 217.258L160.387 214.831L169.388 133.215L200.508 130.248Z" fill="#2F2E41"/>
<path d="M171.69 77.7408L181.171 72.9883L195.752 73.2444L208.3 79.6608L201.161 115.291L204.245 133.869H204.245C192.326 136.906 179.847 137.009 167.879 134.168L167.783 134.145C167.783 134.145 174.871 109.014 171.854 101.344L171.69 77.7408Z" fill="#CBCBCB"/>
<path d="M199.12 58.7504C199.11 55.9067 197.97 53.1833 195.953 51.178C193.935 49.1727 191.203 48.0494 188.358 48.0547C185.512 48.06 182.785 49.1933 180.774 51.2061C178.764 53.2188 177.635 55.9464 177.635 58.7901C177.635 61.6339 178.764 64.3615 180.774 66.3742C182.785 68.3869 185.512 69.5203 188.358 69.5256C191.203 69.5308 193.935 68.4076 195.953 66.4023C197.97 64.397 199.11 61.6736 199.12 58.8299C199.12 58.8034 199.12 58.7769 199.12 58.7504Z" fill="#9F616A"/>
<path d="M183.566 52.6165C184.123 52.0931 184.856 51.7976 185.62 51.7887C186.767 51.7514 188.487 52.1588 189.219 53.0912C189.807 53.8405 189.835 54.8716 189.838 55.824L189.844 58.4526C189.846 59.2302 189.855 60.0411 190.209 60.7339C190.562 61.4266 191.374 61.9528 192.115 61.7167C192.995 61.4365 193.382 60.2683 194.28 60.0583C194.955 59.9005 195.649 60.3935 195.944 61.0204C196.193 61.6703 196.276 62.3721 196.184 63.062C196.099 64.4384 194.124 64.9844 193.844 66.3348C193.682 67.1159 193.116 68.6741 193.844 68.3475C197.201 68.012 198.674 66.0527 200.211 64.2082L203.676 60.0482C204.072 59.6352 204.376 59.1434 204.568 58.6049C204.654 58.2277 204.685 57.8401 204.66 57.4541C204.641 56.4201 204.613 55.3864 204.576 54.353C204.543 53.4501 204.316 52.3109 203.431 52.1253C202.971 52.0288 202.361 52.1971 202.118 51.7949C202.027 51.5934 202.012 51.3655 202.077 51.1539C202.272 50.1219 202.602 49.0425 202.262 48.0487C201.749 46.5498 199.984 45.9348 198.424 45.652C196.865 45.3692 195.114 45.1259 194.135 43.8801C193.873 43.4665 193.589 43.0672 193.284 42.6842C192.835 42.2762 192.283 41.9981 191.688 41.8798C189.752 41.3901 187.707 41.5715 185.887 42.3942C185.133 42.7383 184.375 43.2015 183.547 43.1491C182.688 43.0947 181.953 42.4901 181.105 42.343C179.734 42.1054 178.423 43.1318 177.748 44.3472C176.911 45.8533 176.834 47.9158 178.016 49.1694C178.606 49.7948 179.487 50.2244 179.732 51.0483C179.831 51.3836 179.808 51.7448 179.896 52.0834C179.999 52.4204 180.195 52.7215 180.462 52.9521C180.728 53.1826 181.055 53.3331 181.403 53.3862C182.241 53.5226 182.951 53.1389 183.566 52.6165Z" fill="#2F2E41"/>
<path d="M170.382 103.718C170.586 104.242 170.903 104.715 171.309 105.103C171.716 105.492 172.203 105.786 172.736 105.966C173.269 106.146 173.834 106.207 174.394 106.145C174.953 106.083 175.491 105.899 175.971 105.606L195.224 115.776L195.847 111.09L177.14 100.065C176.594 99.2919 175.784 98.7452 174.862 98.529C173.94 98.3128 172.97 98.4421 172.137 98.8923C171.304 99.3426 170.666 100.083 170.342 100.972C170.019 101.861 170.033 102.839 170.382 103.718V103.718Z" fill="#9F616A"/>
<path d="M196.036 104.529C195.722 104.995 195.31 105.387 194.828 105.677C194.346 105.967 193.807 106.148 193.247 106.207C192.688 106.266 192.123 106.202 191.591 106.019C191.059 105.836 190.574 105.539 190.169 105.148L169.156 110.863L169.339 104.912L190.242 99.4866C190.944 98.8511 191.854 98.4949 192.801 98.4855C193.748 98.4762 194.666 98.8142 195.38 99.4357C196.094 100.057 196.556 100.919 196.677 101.858C196.797 102.796 196.57 103.747 196.036 104.529Z" fill="#9F616A"/>
<path d="M204.204 79.9167L208.301 79.6602C208.301 79.6602 213.098 85.9853 210.437 92.849C210.437 92.849 210.898 117.505 200.274 116.492C189.65 115.479 186.293 115.479 186.293 115.479L189.482 106.59L196.616 104.388C196.616 104.388 194.417 94.6955 198.579 90.6627L204.204 79.9167Z" fill="#CBCBCB"/>
<path d="M174.62 79.6999L174.04 76.7336C174.04 76.7336 165.501 76.5331 163.812 89.4646C163.812 89.4646 156.133 108.818 163.66 111.31C171.187 113.802 179.467 111.31 179.467 111.31L178.843 102.775L170.561 101.086C170.561 101.086 174.839 95.5545 172.51 90.7566L174.62 79.6999Z" fill="#CBCBCB"/>
<path d="M256.665 224H128.769C128.68 224 128.595 223.965 128.532 223.902C128.469 223.839 128.434 223.754 128.434 223.665C128.434 223.576 128.469 223.49 128.532 223.427C128.595 223.364 128.68 223.329 128.769 223.329H256.665C256.754 223.329 256.84 223.364 256.902 223.427C256.965 223.49 257.001 223.576 257.001 223.665C257.001 223.754 256.965 223.839 256.902 223.902C256.84 223.965 256.754 224 256.665 224Z" fill="#CBCBCB"/>
</g>
<defs>
<clipPath id="clip0_591_291">
<rect width="257" height="224" fill="white"/>
</clipPath>
</defs>
</svg>
