<svg width="935" height="1155" viewBox="0 0 935 1155" fill="none" xmlns="http://www.w3.org/2000/svg">
<path fillRule="evenodd" clipRule="evenodd" d="M935 0H0V300.214H13.8525V362.836H74.2773V300.214H129.819V479.169H74.2773V406.781H13.8525V479.169H0V653.214H13.6084V788.102H99.9121V832.169H0V1156H935V0ZM314.634 300.214H166.44V479.169H317.319V438.642H221.86V403.363H307.92V366.864H221.86V338.422H314.634V300.214ZM402.524 300.214H347.227V479.169H488.828V435.102H402.524V300.214ZM569.272 300.214H513.975V479.169H655.576V435.102H569.272V300.214ZM693.784 321.576C677.508 337.852 669.37 360.598 669.37 389.814C669.37 410.728 673.48 428.144 681.699 442.06C689.919 455.976 700.62 466.148 713.804 472.577C727.069 479.006 743.792 482.221 763.975 482.221C783.831 482.221 800.392 478.518 813.657 471.113C827.004 463.626 837.176 453.209 844.175 439.863C851.255 426.435 854.795 409.264 854.795 388.349C854.795 359.54 846.738 337.161 830.625 321.21C814.512 305.178 791.562 297.162 761.777 297.162C732.725 297.162 710.06 305.3 693.784 321.576ZM734.678 428.998C728.005 421.104 724.668 408.124 724.668 390.058C724.668 371.829 728.045 358.767 734.8 350.873C741.554 342.979 750.506 339.032 761.655 339.032C773.293 339.032 782.489 342.939 789.243 350.751C796.079 358.482 799.497 370.771 799.497 387.616C799.497 407.636 796.242 421.511 789.731 429.242C783.221 436.974 774.025 440.839 762.144 440.839C750.588 440.839 741.432 436.892 734.678 428.998ZM138.12 674.576C121.844 690.852 113.706 713.598 113.706 742.814C113.706 763.728 117.816 781.144 126.035 795.06C134.255 808.976 144.956 819.148 158.14 825.577C171.405 832.006 188.128 835.221 208.311 835.221C228.167 835.221 244.728 831.518 257.993 824.113C271.34 816.626 281.512 806.209 288.511 792.863C295.591 779.435 299.131 762.264 299.131 741.349C299.131 712.54 291.074 690.161 274.961 674.21C258.848 658.178 235.898 650.162 206.113 650.162C177.061 650.162 154.396 658.3 138.12 674.576ZM179.014 781.998C172.34 774.104 169.004 761.124 169.004 743.058C169.004 724.829 172.381 711.767 179.136 703.873C185.89 695.979 194.842 692.032 205.991 692.032C217.629 692.032 226.825 695.939 233.579 703.751C240.415 711.482 243.833 723.771 243.833 740.616C243.833 760.636 240.578 774.511 234.067 782.242C227.557 789.974 218.361 793.839 206.479 793.839C194.924 793.839 185.768 789.892 179.014 781.998ZM496.519 773.698L448.057 759.049C445.615 770.361 441.668 778.987 436.216 784.928C430.845 790.869 422.869 793.839 412.29 793.839C401.385 793.839 392.922 790.177 386.899 782.853C380.877 775.447 377.866 761.816 377.866 741.959C377.866 725.927 380.389 714.168 385.435 706.681C392.108 696.59 401.711 691.544 414.243 691.544C419.777 691.544 424.782 692.683 429.258 694.962C433.734 697.241 437.518 700.496 440.61 704.728C442.482 707.251 444.272 711.238 445.981 716.691L494.81 705.826C488.543 686.946 478.94 672.949 466.001 663.834C453.143 654.72 435.443 650.162 412.9 650.162C384.092 650.162 361.794 658.138 346.006 674.088C330.299 689.957 322.446 712.703 322.446 742.325C322.446 764.542 326.922 782.771 335.874 797.013C344.826 811.254 355.446 821.224 367.734 826.92C380.104 832.535 396.014 835.343 415.464 835.343C431.496 835.343 444.679 833.024 455.015 828.385C465.431 823.746 474.139 816.87 481.138 807.755C488.136 798.641 493.263 787.288 496.519 773.698ZM570.615 802.628H633.604L642.393 832.169H700.254L632.993 653.214H572.69L505.43 832.169H561.948L570.615 802.628ZM602.231 699.601L622.007 763.932H582.578L602.231 699.601ZM773.374 653.214H718.076V832.169H859.678V788.102H773.374V653.214Z" fill="#84CDC1"/>
</svg>
