<svg width="428" height="365" viewBox="0 0 428 365" fill="none" xmlns="http://www.w3.org/2000/svg">
<path fillRule="evenodd" clipRule="evenodd" d="M33.125 0H0V365H428V0H355.476C360.438 1.52516 364.612 3.97308 368 7.34375C374.188 13.4688 377.281 22.0625 377.281 33.125C377.281 41.1562 375.922 47.75 373.203 52.9062C370.516 58.0312 366.609 62.0312 361.484 64.9062C356.391 67.75 350.031 69.1719 342.406 69.1719C334.656 69.1719 328.234 67.9375 323.141 65.4688C318.078 63 313.969 59.0938 310.812 53.75C307.656 48.4062 306.078 41.7188 306.078 33.6875C306.078 22.4688 309.203 13.7344 315.453 7.48438C318.896 4.04108 323.084 1.54629 328.017 0H267.641V51.0781H300.781V68H246.406V0H203.609V51.0781H236.75V68H182.375V0H169.859V13.9531H134.234V24.875H167.281V38.8906H134.234V52.4375H170.891V68H112.953V0H98.8906V68H77.5625V40.2031H54.3594V68H33.125V0ZM77.5625 0H54.3594V23.3281H77.5625V0ZM331.156 48.7344C328.594 45.7031 327.312 40.7188 327.312 33.7812C327.312 26.7812 328.609 21.7656 331.203 18.7344C333.797 15.7031 337.234 14.1875 341.516 14.1875C345.984 14.1875 349.516 15.6875 352.109 18.6875C354.734 21.6562 356.047 26.375 356.047 32.8438C356.047 40.5312 354.797 45.8594 352.297 48.8281C349.797 51.7969 346.266 53.2812 341.703 53.2812C337.266 53.2812 333.75 51.7656 331.156 48.7344ZM54.2656 86.2812H33.0312V155H87.4062V138.078H54.2656V86.2812ZM102.078 94.4844C95.8281 100.734 92.7031 109.469 92.7031 120.688C92.7031 128.719 94.2812 135.406 97.4375 140.75C100.594 146.094 104.703 150 109.766 152.469C114.859 154.938 121.281 156.172 129.031 156.172C136.656 156.172 143.016 154.75 148.109 151.906C153.234 149.031 157.141 145.031 159.828 139.906C162.547 134.75 163.906 128.156 163.906 120.125C163.906 109.062 160.812 100.469 154.625 94.3438C148.438 88.1875 139.625 85.1094 128.188 85.1094C117.031 85.1094 108.328 88.2344 102.078 94.4844ZM117.781 135.734C115.219 132.703 113.938 127.719 113.938 120.781C113.938 113.781 115.234 108.766 117.828 105.734C120.422 102.703 123.859 101.188 128.141 101.188C132.609 101.188 136.141 102.688 138.734 105.688C141.359 108.656 142.672 113.375 142.672 119.844C142.672 127.531 141.422 132.859 138.922 135.828C136.422 138.797 132.891 140.281 128.328 140.281C123.891 140.281 120.375 138.766 117.781 135.734ZM239.703 132.547L221.094 126.922C220.156 131.266 218.641 134.578 216.547 136.859C214.484 139.141 211.422 140.281 207.359 140.281C203.172 140.281 199.922 138.875 197.609 136.062C195.297 133.219 194.141 127.984 194.141 120.359C194.141 114.203 195.109 109.688 197.047 106.812C199.609 102.938 203.297 101 208.109 101C210.234 101 212.156 101.438 213.875 102.312C215.594 103.188 217.047 104.438 218.234 106.062C218.953 107.031 219.641 108.562 220.297 110.656L239.047 106.484C236.641 99.2344 232.953 93.8594 227.984 90.3594C223.047 86.8594 216.25 85.1094 207.594 85.1094C196.531 85.1094 187.969 88.1719 181.906 94.2969C175.875 100.391 172.859 109.125 172.859 120.5C172.859 129.031 174.578 136.031 178.016 141.5C181.453 146.969 185.531 150.797 190.25 152.984C195 155.141 201.109 156.219 208.578 156.219C214.734 156.219 219.797 155.328 223.766 153.547C227.766 151.766 231.109 149.125 233.797 145.625C236.484 142.125 238.453 137.766 239.703 132.547ZM268.156 143.656H292.344L295.719 155H317.938L292.109 86.2812H268.953L243.125 155H264.828L268.156 143.656ZM280.297 104.094L287.891 128.797H272.75L280.297 104.094ZM346.016 86.2812H324.781V155H379.156V138.078H346.016V86.2812Z" fill="#84CDC1"/>
</svg>
