<svg width="40" height="40" viewBox="0 0 40 40" fill="none" xmlns="http://www.w3.org/2000/svg">
<path d="M20 0C8.94602 0 0 8.945 0 20C0 31.0538 8.945 40 20 40C31.054 40 40 31.055 40 20C40 8.94617 31.055 0 20 0ZM22.0538 27.9391C22.0538 28.571 21.1324 29.2027 20.0004 29.2027C18.8157 29.2027 17.9734 28.571 17.9734 27.9391V17.9089C17.9734 17.1718 18.8158 16.6715 20.0004 16.6715C21.1324 16.6715 22.0538 17.1718 22.0538 17.9089V27.9391ZM20.0005 14.2497C18.7895 14.2497 17.8418 13.3546 17.8418 12.3541C17.8418 11.3537 18.7895 10.485 20.0005 10.485C21.1852 10.485 22.133 11.3537 22.133 12.3541C22.133 13.3546 21.1851 14.2497 20.0005 14.2497Z" fill="white"/>
</svg>
