<svg width="52" height="52" viewBox="0 0 52 52" fill="none" xmlns="http://www.w3.org/2000/svg">
<circle cx="26" cy="26" r="25" stroke="#57968B" stroke-width="2"/>
<path d="M17.8134 20.3963C19.2232 20.3963 20.3661 19.2535 20.3661 17.8437C20.3661 16.4339 19.2232 15.291 17.8134 15.291C16.4036 15.291 15.2607 16.4339 15.2607 17.8437C15.2607 19.2535 16.4036 20.3963 17.8134 20.3963Z" fill="#57968B"/>
<path d="M22.776 22.331V36.4931H27.1732V29.4896C27.1732 27.6416 27.5209 25.852 29.8122 25.852C32.072 25.852 32.1 27.9648 32.1 29.6063V36.4943H36.4995V28.7278C36.4995 24.9128 35.6782 21.981 31.2192 21.981C29.0784 21.981 27.6434 23.1558 27.0565 24.2676H26.997V22.331H22.776ZM15.6104 22.331H20.0145V36.4931H15.6104V22.331Z" fill="#57968B"/>
</svg>
