<svg width="935" height="625" viewBox="0 0 935 625" fill="none" xmlns="http://www.w3.org/2000/svg">
<path fillRule="evenodd" clipRule="evenodd" d="M935 0H0V119.222H43.8867V227.132H112.93V262.386H0V264.222H72.9883C89.0039 264.222 100.983 268.03 108.926 275.648C116.934 283.265 120.938 294.105 120.938 308.167C120.938 322.62 116.576 333.916 107.852 342.054C99.1927 350.192 85.944 354.261 68.1055 354.261H43.8867V407.386H0V625H935V0ZM126.496 136.312C113.475 149.332 106.965 167.529 106.965 190.901C106.965 207.633 110.253 221.565 116.828 232.698C123.404 243.831 131.965 251.969 142.512 257.112C150.689 261.076 160.51 263.512 171.973 264.421C159.654 267.449 149.377 273.079 141.145 281.312C128.124 294.332 121.613 312.529 121.613 335.901C121.613 352.633 124.901 366.565 131.477 377.698C138.052 388.831 146.613 396.969 157.16 402.112C167.772 407.256 181.151 409.827 197.297 409.827C213.182 409.827 226.431 406.865 237.043 400.94C247.72 394.951 255.858 386.618 261.457 375.94C267.121 365.198 269.953 351.461 269.953 334.73C269.953 311.683 263.508 293.779 250.617 281.019C239.7 270.156 224.859 263.894 206.096 262.231C212.085 260.76 217.518 258.663 222.395 255.94C233.072 249.951 241.21 241.618 246.809 230.94C252.473 220.198 255.305 206.461 255.305 189.73C255.305 166.683 248.859 148.779 235.969 136.019C223.078 123.193 204.719 116.78 180.891 116.78C157.648 116.78 139.517 123.291 126.496 136.312ZM159.211 222.249C153.872 215.934 151.203 205.55 151.203 191.097C151.203 176.513 153.905 166.064 159.309 159.749C164.712 153.434 171.874 150.276 180.793 150.276C190.103 150.276 197.46 153.401 202.863 159.651C208.332 165.836 211.066 175.667 211.066 189.144C211.066 205.159 208.462 216.26 203.254 222.444C198.046 228.629 190.689 231.722 181.184 231.722C171.939 231.722 164.615 228.564 159.211 222.249ZM396.215 215.608L357.445 203.89C355.492 212.939 352.335 219.84 347.973 224.593C343.676 229.345 337.296 231.722 328.832 231.722C320.108 231.722 313.337 228.792 308.52 222.933C303.702 217.008 301.293 206.103 301.293 190.218C301.293 177.392 303.311 167.985 307.348 161.995C312.686 153.922 320.368 149.886 330.395 149.886C334.822 149.886 338.826 150.797 342.406 152.62C345.987 154.443 349.014 157.047 351.488 160.433C352.986 162.451 354.418 165.641 355.785 170.003L394.848 161.312C389.835 146.207 382.152 135.01 371.801 127.718C361.514 120.426 347.354 116.78 329.32 116.78C306.273 116.78 288.435 123.161 275.805 135.921C263.24 148.616 256.957 166.813 256.957 190.511C256.957 208.284 260.538 222.868 267.699 234.261C274.861 245.654 283.357 253.629 293.188 258.187C300.588 261.546 309.572 263.649 320.141 264.496C308.221 267.493 298.326 272.967 290.453 280.921C277.888 293.616 271.605 311.813 271.605 335.511C271.605 353.284 275.186 367.868 282.348 379.261C289.509 390.654 298.005 398.629 307.836 403.187C317.732 407.679 330.46 409.925 346.02 409.925C358.845 409.925 369.392 408.069 377.66 404.358C385.993 400.648 392.96 395.146 398.559 387.855C404.158 380.563 408.259 371.481 410.863 360.608L372.094 348.89C370.141 357.939 366.983 364.84 362.621 369.593C358.324 374.345 351.944 376.722 343.48 376.722C334.757 376.722 327.986 373.792 323.168 367.933C318.35 362.008 315.941 351.103 315.941 335.218C315.941 322.392 317.96 312.985 321.996 306.995C327.335 298.922 335.017 294.886 345.043 294.886C349.47 294.886 353.474 295.797 357.055 297.62C360.635 299.443 363.663 302.047 366.137 305.433C367.634 307.451 369.066 310.641 370.434 315.003L409.496 306.312C404.483 291.207 396.801 280.009 386.449 272.718C378.306 266.946 367.736 263.458 354.738 262.255C357.712 261.465 360.469 260.5 363.012 259.358C371.345 255.648 378.311 250.146 383.91 242.855C389.509 235.563 393.611 226.481 396.215 215.608ZM438.492 238.753H488.883L495.914 262.386H539.461H542.203H652.742V227.132H583.699V119.222H539.461V255.09L488.395 119.222H440.152L386.344 262.386H431.559L438.492 238.753ZM463.785 156.331L479.605 207.796H448.062L463.785 156.331ZM54.7266 325.257H43.8867V293.323H56.4844C64.7526 293.323 70.3841 294.886 73.3789 298.011C76.3737 301.136 77.8711 304.944 77.8711 309.437C77.8711 314.059 76.1458 317.868 72.6953 320.862C69.2448 323.792 63.2552 325.257 54.7266 325.257ZM173.859 367.249C168.521 360.934 165.852 350.55 165.852 336.097C165.852 321.513 168.553 311.064 173.957 304.749C179.361 298.434 186.522 295.276 195.441 295.276C204.751 295.276 212.108 298.401 217.512 304.651C222.98 310.836 225.715 320.667 225.715 334.144C225.715 350.159 223.111 361.259 217.902 367.444C212.694 373.629 205.337 376.722 195.832 376.722C186.587 376.722 179.263 373.564 173.859 367.249ZM459.879 264.222H415.641V407.386H459.879V372.425L482.73 348.499L512.906 407.386H564.949H567.398H685.652V374.964H609.285V346.741H678.133V317.542H609.285V294.788H682.52V299.573H727.637V407.386H771.875V299.573H816.992V264.222H683.504H682.52H565.055H564.949H506.266L459.879 318.323V264.222ZM564.949 264.331L512.906 318.226L564.949 403.378V264.331Z" fill="#84CDC1"/>
</svg>
