<svg width="394" height="142" viewBox="0 0 394 142" fill="none" xmlns="http://www.w3.org/2000/svg">
<path d="M1.03125 1.28125V-1.71875H-1.96875V1.28125H1.03125ZM22.2656 1.28125H25.2656V-1.71875H22.2656V1.28125ZM22.2656 53.0781H19.2656V56.0781H22.2656V53.0781ZM55.4062 53.0781H58.4062V50.0781H55.4062V53.0781ZM55.4062 70V73H58.4062V70H55.4062ZM1.03125 70H-1.96875V73H1.03125V70ZM1.03125 4.28125H22.2656V-1.71875H1.03125V4.28125ZM19.2656 1.28125V53.0781H25.2656V1.28125H19.2656ZM22.2656 56.0781H55.4062V50.0781H22.2656V56.0781ZM52.4062 53.0781V70H58.4062V53.0781H52.4062ZM55.4062 67H1.03125V73H55.4062V67ZM4.03125 70V1.28125H-1.96875V70H4.03125ZM114.465 9.34375L112.349 11.4704L112.354 11.4758L114.465 9.34375ZM119.668 54.9062L117.014 53.507L117.011 53.513L119.668 54.9062ZM107.949 66.9062L109.412 69.5257L109.417 69.5227L107.949 66.9062ZM69.6056 67.4688L68.2907 70.1652L68.2972 70.1684L69.6056 67.4688ZM77.6213 50.7344L75.3302 52.6711L75.336 52.678L75.3418 52.6848L77.6213 50.7344ZM98.5744 20.6875L96.305 22.6496L96.3159 22.6622L96.3269 22.6747L98.5744 20.6875ZM55.5431 35.6875C55.5431 25.0393 58.4934 17.1517 64.0394 11.6057L59.7968 7.36305C52.8428 14.317 49.5431 23.8982 49.5431 35.6875H55.5431ZM64.0394 11.6057C69.5885 6.05661 77.4473 3.10938 88.0275 3.10938V-2.89062C76.2952 -2.89062 66.7477 0.412145 59.7968 7.36305L64.0394 11.6057ZM88.0275 3.10938C98.9276 3.10938 106.882 6.03114 112.349 11.4704L116.581 7.21707C109.673 0.343859 100.002 -2.89062 88.0275 -2.89062V3.10938ZM112.354 11.4758C117.829 16.8949 120.746 24.6354 120.746 35.125H126.746C126.746 23.4896 123.476 14.0426 116.576 7.21169L112.354 11.4758ZM120.746 35.125C120.746 42.8434 119.436 48.914 117.014 53.507L122.322 56.3055C125.338 50.586 126.746 43.4691 126.746 35.125H120.746ZM117.011 53.513C114.598 58.1154 111.109 61.6942 106.482 64.2898L109.417 69.5227C115.04 66.3683 119.363 61.9471 122.325 56.2995L117.011 53.513ZM106.487 64.2868C101.957 66.8159 96.1369 68.1719 88.8713 68.1719V74.1719C96.8556 74.1719 103.754 72.6841 109.412 69.5257L106.487 64.2868ZM88.8713 68.1719C81.4164 68.1719 75.4782 66.9812 70.914 64.7691L68.2972 70.1684C73.9205 72.8938 80.8261 74.1719 88.8713 74.1719V68.1719ZM70.9206 64.7723C66.4397 62.5872 62.7496 59.1156 59.8606 54.2243L54.6944 57.2757C58.1179 63.0719 62.6466 67.4128 68.2907 70.1652L70.9206 64.7723ZM59.8606 54.2243C57.0464 49.4597 55.5431 43.3365 55.5431 35.6875H49.5431C49.5431 44.101 51.1961 51.3528 54.6944 57.2757L59.8606 54.2243ZM70.7775 35.7812C70.7775 42.9483 72.0743 48.8197 75.3302 52.6711L79.9123 48.7976C78.0432 46.5866 76.7775 42.4892 76.7775 35.7812H70.7775ZM75.3418 52.6848C78.5737 56.4619 82.9646 58.2812 88.1681 58.2812V52.2812C84.4967 52.2812 81.8563 51.0694 79.9007 48.7839L75.3418 52.6848ZM88.1681 58.2812C93.4434 58.2812 97.8843 56.5277 101.057 52.7605L96.4671 48.8957C94.6395 51.0661 92.0179 52.2812 88.1681 52.2812V58.2812ZM101.057 52.7605C104.285 48.9262 105.512 42.6475 105.512 34.8438H99.5119C99.5119 42.415 98.2383 46.7925 96.4671 48.8957L101.057 52.7605ZM105.512 34.8438C105.512 28.0769 104.158 22.4729 100.822 18.7003L96.3269 22.6747C98.2411 24.8396 99.5119 28.6731 99.5119 34.8438H105.512ZM100.844 18.7254C97.6041 14.9783 93.1972 13.1875 87.9806 13.1875V19.1875C91.7016 19.1875 94.3572 20.3967 96.305 22.6496L100.844 18.7254ZM87.9806 13.1875C82.8955 13.1875 78.5981 15.0332 75.3887 18.7839L79.9476 22.6848C81.9257 20.373 84.5033 19.1875 87.9806 19.1875V13.1875ZM75.3887 18.7839C72.0889 22.6403 70.7775 28.554 70.7775 35.7812H76.7775C76.7775 29.0085 78.0598 24.8909 79.9476 22.6848L75.3887 18.7839ZM172.774 41.9219L173.642 39.0502L170.528 38.1089L169.841 41.289L172.774 41.9219ZM191.383 47.5469L194.301 48.2457L194.96 45.4939L192.251 44.6752L191.383 47.5469ZM175.446 68.5469L174.225 65.8063L174.217 65.8099L175.446 68.5469ZM141.93 67.9844L140.668 70.7061L140.679 70.7112L140.69 70.7161L141.93 67.9844ZM133.586 9.29688L131.454 7.18646L131.454 7.18652L133.586 9.29688ZM179.664 5.35938L177.929 7.80685L177.937 7.81199L179.664 5.35938ZM190.727 21.4844L191.378 24.4128L194.62 23.6914L193.574 20.5394L190.727 21.4844ZM171.977 25.6562L169.114 26.5535L169.938 29.1832L172.628 28.5846L171.977 25.6562ZM169.914 21.0625L167.492 22.8325L167.499 22.8413L167.505 22.85L169.914 21.0625ZM148.727 21.8125L151.215 23.4891L151.222 23.4782L151.229 23.4673L148.727 21.8125ZM149.289 51.0625L146.962 52.9552L146.967 52.9615L146.972 52.9678L149.289 51.0625ZM168.227 51.8594L166.017 49.8308L166.009 49.8391L166.002 49.8474L168.227 51.8594ZM171.906 44.7936L190.515 50.4186L192.251 44.6752L173.642 39.0502L171.906 44.7936ZM188.466 46.8481C187.293 51.7437 185.479 55.6961 183.097 58.7979L187.856 62.4521C190.85 58.5539 192.973 53.7875 194.301 48.2457L188.466 46.8481ZM183.097 58.7979C180.712 61.9049 177.765 64.23 174.225 65.8063L176.666 71.2874C181.126 69.3013 184.867 66.3451 187.856 62.4521L183.097 58.7979ZM174.217 65.8099C170.76 67.3614 166.154 68.2188 160.258 68.2188V74.2188C166.674 74.2188 172.193 73.2948 176.674 71.2838L174.217 65.8099ZM160.258 68.2188C153.046 68.2188 147.4 67.1729 143.17 65.2527L140.69 70.7161C145.96 73.1083 152.533 74.2188 160.258 74.2188V68.2188ZM143.192 65.2626C139.113 63.3718 135.439 60.0004 132.236 54.9035L127.156 58.0965C130.827 63.9371 135.309 68.2219 140.668 70.7061L143.192 65.2626ZM132.236 54.9035C129.181 50.0436 127.539 43.6435 127.539 35.5H121.539C121.539 44.419 123.336 52.0189 127.156 58.0965L132.236 54.9035ZM127.539 35.5C127.539 24.6485 130.406 16.7745 135.718 11.4072L131.454 7.18652C124.704 14.0067 121.539 23.6015 121.539 35.5H127.539ZM135.718 11.4073C141.069 6.00109 148.774 3.10938 159.274 3.10938V-2.89062C147.649 -2.89062 138.228 0.342656 131.454 7.18646L135.718 11.4073ZM159.274 3.10938C167.566 3.10938 173.675 4.79088 177.929 7.80684L181.399 2.91191C175.779 -1.07213 168.294 -2.89062 159.274 -2.89062V3.10938ZM177.937 7.81199C182.259 10.8565 185.623 15.6304 187.88 22.4294L193.574 20.5394C191.018 12.8383 187.007 6.86226 181.392 2.90676L177.937 7.81199ZM190.075 18.556L171.325 22.7279L172.628 28.5846L191.378 24.4128L190.075 18.556ZM174.84 24.759C174.151 22.5624 173.343 20.6495 172.324 19.275L167.505 22.85C167.923 23.413 168.49 24.5626 169.114 26.5535L174.84 24.759ZM172.337 19.2925C170.884 17.3043 169.073 15.7371 166.916 14.639L164.194 19.986C165.475 20.6379 166.57 21.5707 167.492 22.8325L172.337 19.2925ZM166.916 14.639C164.734 13.5282 162.339 13 159.789 13V19C161.49 19 162.938 19.3468 164.194 19.986L166.916 14.639ZM159.789 13C154.013 13 149.366 15.4071 146.225 20.1577L151.229 23.4673C153.213 20.4679 155.94 19 159.789 19V13ZM146.239 20.1359C143.797 23.7602 142.821 29.0112 142.821 35.3594H148.821C148.821 29.3951 149.782 25.6148 151.215 23.4891L146.239 20.1359ZM142.821 35.3594C142.821 43.0573 143.941 49.2405 146.962 52.9552L151.617 49.1698C150.013 47.197 148.821 42.9115 148.821 35.3594H142.821ZM146.972 52.9678C149.944 56.5821 154.105 58.2812 159.039 58.2812V52.2812C155.598 52.2812 153.26 51.1679 151.607 49.1572L146.972 52.9678ZM159.039 58.2812C163.663 58.2812 167.653 56.9669 170.452 53.8713L166.002 49.8474C164.675 51.3144 162.541 52.2812 159.039 52.2812V58.2812ZM170.437 53.8879C173.015 51.0792 174.702 47.2059 175.706 42.5548L169.841 41.289C168.97 45.3253 167.626 48.077 166.017 49.8308L170.437 53.8879ZM235.864 58.6562L238.739 57.8007L238.101 55.6562H235.864V58.6562ZM211.676 58.6562V55.6562H209.43L208.798 57.8117L211.676 58.6562ZM208.348 70V73H210.594L211.227 70.8446L208.348 70ZM186.645 70L183.837 68.9445L182.313 73H186.645V70ZM212.473 1.28125V-1.71875H210.396L209.665 0.225781L212.473 1.28125ZM235.629 1.28125L238.438 0.225781L237.707 -1.71875H235.629V1.28125ZM261.458 70V73H265.79L264.266 68.9445L261.458 70ZM239.239 70L236.363 70.8555L237.001 73H239.239V70ZM231.411 43.7969V46.7969H235.471L234.278 42.9154L231.411 43.7969ZM223.817 19.0938L226.684 18.2123L223.808 8.85491L220.948 18.2172L223.817 19.0938ZM216.27 43.7969L213.401 42.9204L212.217 46.7969H216.27V43.7969ZM235.864 55.6562H211.676V61.6562H235.864V55.6562ZM208.798 57.8117L205.469 69.1554L211.227 70.8446L214.555 59.5008L208.798 57.8117ZM208.348 67H186.645V73H208.348V67ZM189.453 71.0555L215.281 2.33672L209.665 0.225781L183.837 68.9445L189.453 71.0555ZM212.473 4.28125H235.629V-1.71875H212.473V4.28125ZM232.821 2.33672L258.649 71.0555L264.266 68.9445L238.438 0.225781L232.821 2.33672ZM261.458 67H239.239V73H261.458V67ZM242.114 69.1445L238.739 57.8007L232.988 59.5118L236.363 70.8555L242.114 69.1445ZM234.278 42.9154L226.684 18.2123L220.949 19.9752L228.543 44.6784L234.278 42.9154ZM220.948 18.2172L213.401 42.9204L219.139 44.6734L226.686 19.9703L220.948 18.2172ZM216.27 46.7969H231.411V40.7969H216.27V46.7969ZM260.141 1.28125V-1.71875H257.141V1.28125H260.141ZM281.376 1.28125H284.376V-1.71875H281.376V1.28125ZM281.376 53.0781H278.376V56.0781H281.376V53.0781ZM314.516 53.0781H317.516V50.0781H314.516V53.0781ZM314.516 70V73H317.516V70H314.516ZM260.141 70H257.141V73H260.141V70ZM260.141 4.28125H281.376V-1.71875H260.141V4.28125ZM278.376 1.28125V53.0781H284.376V1.28125H278.376ZM281.376 56.0781H314.516V50.0781H281.376V56.0781ZM311.516 53.0781V70H317.516V53.0781H311.516ZM314.516 67H260.141V73H314.516V67ZM263.141 70V1.28125H257.141V70H263.141ZM0.9375 71.2812V68.2812H-2.0625V71.2812H0.9375ZM53.4844 76.7656L51.4079 78.9309L51.4167 78.9393L53.4844 76.7656ZM52.9688 108.641L50.9224 106.447L50.9142 106.455L52.9688 108.641ZM22.2656 114.5V111.5H19.2656V114.5H22.2656ZM22.2656 140V143H25.2656V140H22.2656ZM0.9375 140H-2.0625V143H0.9375V140ZM22.2656 100.578H19.2656V103.578H22.2656V100.578ZM36.0938 98.4688L38.0354 100.756L38.0479 100.745L38.0602 100.734L36.0938 98.4688ZM22.2656 85.25V82.25H19.2656V85.25H22.2656ZM0.9375 74.2812H36.2344V68.2812H0.9375V74.2812ZM36.2344 74.2812C43.4981 74.2812 48.3639 76.0116 51.4079 78.9309L55.5609 74.6004C50.9799 70.2072 44.3456 68.2812 36.2344 68.2812V74.2812ZM51.4167 78.9393C54.5129 81.8844 56.25 86.2098 56.25 92.375H62.25C62.25 85.0402 60.1433 78.9593 55.552 74.592L51.4167 78.9393ZM56.25 92.375C56.25 98.6705 54.3755 103.226 50.9224 106.447L55.0151 110.834C59.937 106.243 62.25 99.9545 62.25 92.375H56.25ZM50.9142 106.455C47.5376 109.628 42.0642 111.5 33.8906 111.5V117.5C42.8421 117.5 50.0874 115.466 55.0233 110.827L50.9142 106.455ZM33.8906 111.5H22.2656V117.5H33.8906V111.5ZM19.2656 114.5V140H25.2656V114.5H19.2656ZM22.2656 137H0.9375V143H22.2656V137ZM3.9375 140V71.2812H-2.0625V140H3.9375ZM22.2656 103.578H27.4688V97.5781H22.2656V103.578ZM27.4688 103.578C31.7242 103.578 35.5291 102.884 38.0354 100.756L34.1521 96.1819C33.3459 96.8663 31.4008 97.5781 27.4688 97.5781V103.578ZM38.0602 100.734C40.3817 98.7195 41.5781 96.0607 41.5781 92.9844H35.5781C35.5781 94.3455 35.1183 95.343 34.1273 96.2031L38.0602 100.734ZM41.5781 92.9844C41.5781 90.087 40.5826 87.5058 38.5878 85.4243L34.2559 89.5757C35.1361 90.4942 35.5781 91.5692 35.5781 92.9844H41.5781ZM38.5878 85.4243C36.2484 82.9831 32.4341 82.25 28.3125 82.25V88.25C32.1284 88.25 33.7204 89.0169 34.2559 89.5757L38.5878 85.4243ZM28.3125 82.25H22.2656V88.25H28.3125V82.25ZM19.2656 85.25V100.578H25.2656V85.25H19.2656ZM121.496 79.3438L119.38 81.4704L119.386 81.4758L121.496 79.3438ZM126.699 124.906L124.046 123.507L124.043 123.513L126.699 124.906ZM114.981 136.906L116.443 139.526L116.448 139.523L114.981 136.906ZM76.6369 137.469L75.3219 140.165L75.3285 140.168L76.6369 137.469ZM84.6525 120.734L82.3614 122.671L82.3672 122.678L82.3731 122.685L84.6525 120.734ZM105.606 90.6875L103.336 92.6496L103.347 92.6622L103.358 92.6747L105.606 90.6875ZM62.5744 105.688C62.5744 95.0393 65.5247 87.1517 71.0707 81.6057L66.8281 77.3631C59.8741 84.317 56.5744 93.8982 56.5744 105.688H62.5744ZM71.0707 81.6057C76.6198 76.0566 84.4785 73.1094 95.0588 73.1094V67.1094C83.3265 67.1094 73.779 70.4121 66.8281 77.3631L71.0707 81.6057ZM95.0588 73.1094C105.959 73.1094 113.913 76.0311 119.38 81.4704L123.612 77.2171C116.704 70.3439 107.034 67.1094 95.0588 67.1094V73.1094ZM119.386 81.4758C124.86 86.8949 127.778 94.6354 127.778 105.125H133.778C133.778 93.4896 130.507 84.0426 123.607 77.2117L119.386 81.4758ZM127.778 105.125C127.778 112.843 126.467 118.914 124.046 123.507L129.353 126.305C132.369 120.586 133.778 113.469 133.778 105.125H127.778ZM124.043 123.513C121.629 128.115 118.14 131.694 113.513 134.29L116.448 139.523C122.071 136.368 126.395 131.947 129.356 126.299L124.043 123.513ZM113.518 134.287C108.988 136.816 103.168 138.172 95.9025 138.172V144.172C103.887 144.172 110.786 142.684 116.443 139.526L113.518 134.287ZM95.9025 138.172C88.4476 138.172 82.5095 136.981 77.9453 134.769L75.3285 140.168C80.9518 142.894 87.8574 144.172 95.9025 144.172V138.172ZM77.9518 134.772C73.4709 132.587 69.7809 129.116 66.8918 124.224L61.7257 127.276C65.1491 133.072 69.6778 137.413 75.3219 140.165L77.9518 134.772ZM66.8918 124.224C64.0776 119.46 62.5744 113.337 62.5744 105.688H56.5744C56.5744 114.101 58.2274 121.353 61.7257 127.276L66.8918 124.224ZM77.8088 105.781C77.8088 112.948 79.1056 118.82 82.3614 122.671L86.9436 118.798C85.0744 116.587 83.8088 112.489 83.8088 105.781H77.8088ZM82.3731 122.685C85.605 126.462 89.9958 128.281 95.1994 128.281V122.281C91.5279 122.281 88.8875 121.069 86.9319 118.784L82.3731 122.685ZM95.1994 128.281C100.475 128.281 104.916 126.528 108.088 122.761L103.498 118.896C101.671 121.066 99.0491 122.281 95.1994 122.281V128.281ZM108.088 122.761C111.317 118.926 112.543 112.647 112.543 104.844H106.543C106.543 112.415 105.27 116.793 103.498 118.896L108.088 122.761ZM112.543 104.844C112.543 98.0769 111.189 92.4729 107.853 88.7003L103.358 92.6747C105.272 94.8396 106.543 98.6731 106.543 104.844H112.543ZM107.875 88.7254C104.635 84.9783 100.228 83.1875 95.0119 83.1875V89.1875C98.7328 89.1875 101.388 90.3967 103.336 92.6496L107.875 88.7254ZM95.0119 83.1875C89.9267 83.1875 85.6293 85.0332 82.4199 88.7839L86.9788 92.6848C88.9569 90.373 91.5345 89.1875 95.0119 89.1875V83.1875ZM82.4199 88.7839C79.1202 92.6403 77.8088 98.554 77.8088 105.781H83.8088C83.8088 99.0085 85.0911 94.8909 86.9788 92.6848L82.4199 88.7839ZM179.805 111.922L180.673 109.05L177.559 108.109L176.873 111.289L179.805 111.922ZM198.414 117.547L201.332 118.246L201.991 115.494L199.282 114.675L198.414 117.547ZM182.477 138.547L181.256 135.806L181.248 135.81L182.477 138.547ZM148.961 137.984L147.699 140.706L147.71 140.711L147.721 140.716L148.961 137.984ZM140.617 79.2969L138.485 77.1865L138.485 77.1865L140.617 79.2969ZM186.696 75.3594L184.961 77.8069L184.968 77.812L186.696 75.3594ZM197.758 91.4844L198.41 94.4128L201.652 93.6914L200.605 90.5394L197.758 91.4844ZM179.008 95.6562L176.145 96.5535L176.97 99.1832L179.66 98.5846L179.008 95.6562ZM176.946 91.0625L174.523 92.8325L174.53 92.8413L174.536 92.85L176.946 91.0625ZM155.758 91.8125L158.246 93.4891L158.253 93.4782L158.26 93.4673L155.758 91.8125ZM156.321 121.062L153.993 122.955L153.998 122.962L154.003 122.968L156.321 121.062ZM175.258 121.859L173.048 119.831L173.04 119.839L173.033 119.847L175.258 121.859ZM178.937 114.794L197.546 120.419L199.282 114.675L180.673 109.05L178.937 114.794ZM195.497 116.848C194.324 121.744 192.51 125.696 190.129 128.798L194.888 132.452C197.881 128.554 200.004 123.788 201.332 118.246L195.497 116.848ZM190.129 128.798C187.743 131.905 184.796 134.23 181.256 135.806L183.697 141.287C188.157 139.301 191.898 136.345 194.888 132.452L190.129 128.798ZM181.248 135.81C177.792 137.361 173.186 138.219 167.289 138.219V144.219C173.706 144.219 179.225 143.295 183.705 141.284L181.248 135.81ZM167.289 138.219C160.077 138.219 154.431 137.173 150.201 135.253L147.721 140.716C152.991 143.108 159.564 144.219 167.289 144.219V138.219ZM150.223 135.263C146.144 133.372 142.471 130 139.267 124.903L134.187 128.097C137.858 133.937 142.341 138.222 147.699 140.706L150.223 135.263ZM139.267 124.903C136.212 120.044 134.571 113.643 134.571 105.5H128.571C128.571 114.419 130.367 122.019 134.187 128.097L139.267 124.903ZM134.571 105.5C134.571 94.6485 137.437 86.7745 142.75 81.4072L138.485 77.1865C131.735 84.0067 128.571 93.6015 128.571 105.5H134.571ZM142.75 81.4073C148.101 76.0011 155.805 73.1094 166.305 73.1094V67.1094C154.68 67.1094 145.259 70.3427 138.485 77.1865L142.75 81.4073ZM166.305 73.1094C174.597 73.1094 180.706 74.7909 184.961 77.8068L188.431 72.9119C182.81 68.9279 175.326 67.1094 166.305 67.1094V73.1094ZM184.968 77.812C189.29 80.8565 192.654 85.6304 194.911 92.4294L200.605 90.5394C198.049 82.8383 194.039 76.8623 188.423 72.9068L184.968 77.812ZM197.107 88.556L178.357 92.7279L179.66 98.5846L198.41 94.4128L197.107 88.556ZM181.871 94.759C181.182 92.5624 180.375 90.6495 179.355 89.275L174.536 92.85C174.954 93.413 175.521 94.5626 176.145 96.5535L181.871 94.759ZM179.368 89.2925C177.915 87.3043 176.104 85.7371 173.947 84.639L171.225 89.986C172.506 90.6379 173.601 91.5707 174.523 92.8325L179.368 89.2925ZM173.947 84.639C171.765 83.5282 169.37 83 166.821 83V89C168.521 89 169.97 89.3468 171.225 89.986L173.947 84.639ZM166.821 83C161.045 83 156.397 85.4071 153.256 90.1577L158.26 93.4673C160.244 90.4679 162.972 89 166.821 89V83ZM153.27 90.1359C150.828 93.7602 149.852 99.0112 149.852 105.359H155.852C155.852 99.3951 156.813 95.6148 158.246 93.4891L153.27 90.1359ZM149.852 105.359C149.852 113.057 150.972 119.241 153.993 122.955L158.648 119.17C157.044 117.197 155.852 112.911 155.852 105.359H149.852ZM154.003 122.968C156.975 126.582 161.137 128.281 166.071 128.281V122.281C162.63 122.281 160.291 121.168 158.638 119.157L154.003 122.968ZM166.071 128.281C170.694 128.281 174.685 126.967 177.483 123.871L173.033 119.847C171.707 121.314 169.572 122.281 166.071 122.281V128.281ZM177.468 123.888C180.046 121.079 181.734 117.206 182.737 112.555L176.873 111.289C176.001 115.325 174.658 118.077 173.048 119.831L177.468 123.888ZM200.708 71.2812V68.2812H197.708V71.2812H200.708ZM221.942 71.2812H224.942V68.2812H221.942V71.2812ZM221.942 97.25H218.942V105.358L224.219 99.2027L221.942 97.25ZM244.208 71.2812V68.2812H242.828L241.93 69.3285L244.208 71.2812ZM272.426 71.2812L274.584 73.3652L279.494 68.2812H272.426V71.2812ZM247.395 97.2031L245.237 95.1192L243.625 96.7881L244.835 98.7676L247.395 97.2031ZM273.551 140V143H278.901L276.111 138.436L273.551 140ZM247.395 140L244.725 141.368L245.561 143H247.395V140ZM232.911 111.734L235.58 110.366L233.656 106.611L230.741 109.662L232.911 111.734ZM221.942 123.219L219.772 121.147L218.942 122.016V123.219H221.942ZM221.942 140V143H224.942V140H221.942ZM200.708 140H197.708V143H200.708V140ZM200.708 74.2812H221.942V68.2812H200.708V74.2812ZM218.942 71.2812V97.25H224.942V71.2812H218.942ZM224.219 99.2027L246.485 73.234L241.93 69.3285L219.664 95.2973L224.219 99.2027ZM244.208 74.2812H272.426V68.2812H244.208V74.2812ZM270.268 69.1973L245.237 95.1192L249.553 99.287L274.584 73.3652L270.268 69.1973ZM244.835 98.7676L270.991 141.564L276.111 138.436L249.955 95.6387L244.835 98.7676ZM273.551 137H247.395V143H273.551V137ZM250.065 138.632L235.58 110.366L230.241 113.103L244.725 141.368L250.065 138.632ZM230.741 109.662L219.772 121.147L224.111 125.291L235.08 113.806L230.741 109.662ZM218.942 123.219V140H224.942V123.219H218.942ZM221.942 137H200.708V143H221.942V137ZM203.708 140V71.2812H197.708V140H203.708ZM272.376 71.2812V68.2812H269.376V71.2812H272.376ZM329.282 71.2812H332.282V68.2812H329.282V71.2812ZM329.282 85.9531V88.9531H332.282V85.9531H329.282ZM293.657 85.9531V82.9531H290.657V85.9531H293.657ZM293.657 96.875H290.657V99.875H293.657V96.875ZM326.704 96.875H329.704V93.875H326.704V96.875ZM326.704 110.891V113.891H329.704V110.891H326.704ZM293.657 110.891V107.891H290.657V110.891H293.657ZM293.657 124.438H290.657V127.438H293.657V124.438ZM330.313 124.438H333.313V121.438H330.313V124.438ZM330.313 140V143H333.313V140H330.313ZM272.376 140H269.376V143H272.376V140ZM272.376 74.2812H329.282V68.2812H272.376V74.2812ZM326.282 71.2812V85.9531H332.282V71.2812H326.282ZM329.282 82.9531H293.657V88.9531H329.282V82.9531ZM290.657 85.9531V96.875H296.657V85.9531H290.657ZM293.657 99.875H326.704V93.875H293.657V99.875ZM323.704 96.875V110.891H329.704V96.875H323.704ZM326.704 107.891H293.657V113.891H326.704V107.891ZM290.657 110.891V124.438H296.657V110.891H290.657ZM293.657 127.438H330.313V121.438H293.657V127.438ZM327.313 124.438V140H333.313V124.438H327.313ZM330.313 137H272.376V143H330.313V137ZM275.376 140V71.2812H269.376V140H275.376ZM328.809 71.2812V68.2812H325.809V71.2812H328.809ZM393.356 71.2812H396.356V68.2812H393.356V71.2812ZM393.356 88.25V91.25H396.356V88.25H393.356ZM371.7 88.25V85.25H368.7V88.25H371.7ZM371.7 140V143H374.7V140H371.7ZM350.466 140H347.466V143H350.466V140ZM350.466 88.25H353.466V85.25H350.466V88.25ZM328.809 88.25H325.809V91.25H328.809V88.25ZM328.809 74.2812H393.356V68.2812H328.809V74.2812ZM390.356 71.2812V88.25H396.356V71.2812H390.356ZM393.356 85.25H371.7V91.25H393.356V85.25ZM368.7 88.25V140H374.7V88.25H368.7ZM371.7 137H350.466V143H371.7V137ZM353.466 140V88.25H347.466V140H353.466ZM350.466 85.25H328.809V91.25H350.466V85.25ZM331.809 88.25V71.2812H325.809V88.25H331.809Z" fill="white"/>
</svg>
