<svg width="138" height="34" viewBox="0 0 138 34" fill="none" xmlns="http://www.w3.org/2000/svg" >
<path d="M34 0H0V34H34V0Z" fill="none"/>
<path d="M25.257 20.8458C25.257 21.3165 25.0065 21.7502 24.5981 21.9844L17.6561 25.9922C17.2504 26.2265 16.749 26.2265 16.341 25.9922L9.399 21.9844C8.99327 21.7502 8.74242 21.3165 8.74242 20.8458V19.3297C8.74242 19.1669 8.54636 19.0842 8.43 19.1983L7.46667 20.1397C7.43116 20.1745 7.41113 20.2217 7.41113 20.2712V21.6157C7.41113 22.0864 7.6616 22.5201 8.06733 22.7543L16.3407 27.5321C16.749 27.7663 17.25 27.7663 17.6557 27.5321L25.929 22.7543C26.3374 22.5201 26.5879 22.0864 26.5879 21.6157V13.1644C26.5879 13.0016 26.3918 12.9189 26.2755 13.0326L25.3121 13.9725C25.2766 14.0072 25.2566 14.0545 25.2566 14.1043V20.8458H25.257ZM22.9586 6.2915H11.0416C9.03671 6.2915 7.41189 7.9167 7.41189 9.92119V17.6207C7.41189 17.7835 7.60796 17.8662 7.72431 17.7521L8.68764 16.8107C8.72316 16.776 8.74318 16.7287 8.74318 16.6793V10.3413C8.74318 8.83999 9.96038 7.62279 11.4617 7.62279H22.5366C24.0394 7.62279 25.2574 8.84037 25.2574 10.3413V11.4542C25.2574 11.617 25.4534 11.6998 25.5698 11.5861L26.5331 10.6461C26.5686 10.6114 26.5886 10.5642 26.5886 10.5143V9.92157C26.5886 7.9167 24.9634 6.29188 22.959 6.29188L22.9586 6.2915Z" fill="white"/>
<path d="M13.8237 21.4676C13.6926 21.4676 13.5842 21.3592 13.5842 21.2281V9.30616C13.5842 9.20152 13.498 9.11539 13.3896 9.11539H12.3526C11.0912 9.11539 10.0693 10.1373 10.0693 11.3987V20.21C10.0693 20.6029 10.279 20.9663 10.6232 21.1646L16.444 24.5261C16.7847 24.7244 17.2074 24.7244 17.5482 24.5261L20.4492 22.8529L21.6358 22.168L22.8484 21.468H13.8237V21.4676ZM20.5874 22.2239H13.4266C13.101 22.2239 12.8388 21.9583 12.8388 21.6323V9.88643C12.8388 9.78519 12.9212 9.69943 13.0258 9.69943C13.1305 9.69943 13.2128 9.78557 13.2128 9.88643V21.6323C13.2128 21.7521 13.3065 21.8495 13.4263 21.8495H20.587C20.6883 21.8495 20.774 21.9319 20.774 22.0365C20.774 22.1412 20.6879 22.2235 20.587 22.2235L20.5874 22.2239Z" fill="#9ADDCD"/>
<path d="M20.4191 9.11503H15.25V20.4831H17.5597V16.1746H20.4195C21.3927 16.1746 22.2763 15.7779 22.9162 15.1413C23.5524 14.5014 23.9495 13.6215 23.9495 12.6446C23.9495 10.6945 22.3662 9.11465 20.4195 9.11465L20.4191 9.11503ZM21.2688 13.7677C20.9692 14.0711 20.554 14.2543 20.0973 14.2543H17.6379V10.9378H20.0973C21.0107 10.9378 21.7553 11.679 21.7553 12.5959C21.7553 13.0526 21.5683 13.4682 21.2688 13.7674V13.7677Z" fill="#9ADDCD"/>
<path d="M36.1027 19.9023H40.2465V21.8289H34V8.99035H36.1027V19.9023Z" fill="white"/>
<path d="M46.0443 22C44.6777 22 43.5604 21.5768 42.6923 20.7305C41.8243 19.8782 41.3902 18.7318 41.3902 17.2913C41.3902 15.8628 41.8243 14.7254 42.6923 13.8791C43.5604 13.0268 44.6777 12.6006 46.0443 12.6006C47.4168 12.6006 48.5371 13.0238 49.4051 13.8701C50.2732 14.7164 50.7072 15.8568 50.7072 17.2913C50.7072 18.7318 50.2732 19.8782 49.4051 20.7305C48.5371 21.5768 47.4168 22 46.0443 22ZM46.0267 20.3254C46.8068 20.3254 47.4461 20.0463 47.9447 19.4881C48.4432 18.9299 48.6925 18.1976 48.6925 17.2913C48.6925 16.385 48.4432 15.6557 47.9447 15.1035C47.4461 14.5453 46.8068 14.2662 46.0267 14.2662C45.2642 14.2662 44.6367 14.5453 44.144 15.1035C43.6513 15.6557 43.405 16.385 43.405 17.2913C43.405 18.1976 43.6484 18.9299 44.1352 19.4881C44.6279 20.0463 45.2584 20.3254 46.0267 20.3254Z" fill="white"/>
<path d="M56.6898 21.991C55.3466 21.991 54.2469 21.5588 53.3906 20.6945C52.5342 19.8242 52.1061 18.6898 52.1061 17.2913C52.1061 15.8928 52.5342 14.7614 53.3906 13.8971C54.2528 13.0328 55.3525 12.6006 56.6898 12.6006C57.7514 12.6006 58.6547 12.8797 59.3995 13.4379C60.1503 13.9901 60.6459 14.7644 60.8864 15.7608L59.0036 16.0129C58.8335 15.4487 58.5432 15.0165 58.1326 14.7164C57.7279 14.4163 57.2411 14.2662 56.6722 14.2662C55.9273 14.2662 55.3173 14.5453 54.8422 15.1035C54.3671 15.6557 54.1296 16.385 54.1296 17.2913C54.1296 18.1976 54.3671 18.9299 54.8422 19.4881C55.3173 20.0403 55.9273 20.3164 56.6722 20.3164C57.2411 20.3164 57.7279 20.1693 58.1326 19.8752C58.5432 19.5751 58.8335 19.143 59.0036 18.5788L60.8864 18.8219C60.6459 19.8182 60.1474 20.5955 59.3907 21.1537C58.64 21.7119 57.7397 21.991 56.6898 21.991Z" fill="white"/>
<path d="M65.0038 22C64.4994 22 64.0478 21.922 63.6489 21.7659C63.256 21.6039 62.9275 21.3338 62.6636 20.9556C62.4055 20.5715 62.2765 20.0973 62.2765 19.5331C62.2765 19.155 62.3351 18.8189 62.4524 18.5248C62.5756 18.2247 62.7339 17.9756 62.9275 17.7775C63.1269 17.5794 63.3762 17.4054 63.6753 17.2553C63.9803 17.1053 64.2853 16.9882 64.5903 16.9042C64.9012 16.8141 65.2589 16.7301 65.6636 16.6521L67.0009 16.4C67.5464 16.292 67.8191 16.0189 67.8191 15.5807C67.8191 15.0645 67.6549 14.6894 67.3265 14.4553C66.998 14.2152 66.5845 14.0952 66.0859 14.0952C65.5698 14.0952 65.1446 14.2242 64.8103 14.4823C64.4759 14.7344 64.2765 15.1365 64.212 15.6887L62.3908 15.3466C62.69 13.522 63.9627 12.6096 66.2091 12.6096C66.5845 12.6096 66.9335 12.6397 67.2561 12.6997C67.5845 12.7537 67.9042 12.8557 68.215 13.0058C68.5318 13.1558 68.8016 13.3479 69.0244 13.582C69.2473 13.8101 69.4262 14.1162 69.5611 14.5003C69.696 14.8785 69.7635 15.3136 69.7635 15.8058V19.317C69.7635 19.7372 69.8251 20.0253 69.9482 20.1814C70.0714 20.3374 70.2884 20.4154 70.5993 20.4154H70.74V21.8289H69.7811C68.7781 21.8289 68.1798 21.4298 67.9863 20.6315H67.8895C67.5669 21.0997 67.1476 21.4448 66.6314 21.6669C66.1211 21.889 65.5786 22 65.0038 22ZM65.4789 20.3704C66.1886 20.3704 66.778 20.1213 67.2473 19.6232C67.7165 19.125 67.9511 18.4707 67.9511 17.6604L65.69 18.1736C65.2032 18.2697 64.8396 18.4107 64.5991 18.5968C64.3586 18.7768 64.2384 19.0319 64.2384 19.3621C64.2384 19.6982 64.3528 19.9503 64.5815 20.1183C64.8103 20.2864 65.1094 20.3704 65.4789 20.3704Z" fill="white"/>
<path d="M72.702 21.8289V8H74.7431V21.8289H72.702Z" fill="white"/>
<path d="M87.6408 8.99035C88.4092 8.99035 89.0895 9.17342 89.6819 9.53955C90.2743 9.89968 90.7259 10.3859 91.0368 10.9981C91.3477 11.6103 91.5031 12.2885 91.5031 13.0328C91.5031 14.1912 91.1482 15.1486 90.4385 15.9048C89.7347 16.6611 88.8021 17.0392 87.6408 17.0392H84.7551V21.8289H82.6524V8.99035H87.6408ZM87.3065 15.2026C87.9986 15.2026 88.5294 15.0045 88.8989 14.6084C89.2684 14.2122 89.4532 13.678 89.4532 13.0058C89.4532 12.3516 89.2655 11.8234 88.8901 11.4212C88.5206 11.0131 87.9927 10.809 87.3065 10.809H84.7551V15.2026H87.3065Z" fill="white"/>
<path d="M97.0194 22C95.6528 22 94.5354 21.5768 93.6674 20.7305C92.7993 19.8782 92.3653 18.7318 92.3653 17.2913C92.3653 15.8628 92.7993 14.7254 93.6674 13.8791C94.5354 13.0268 95.6528 12.6006 97.0194 12.6006C98.3918 12.6006 99.5121 13.0238 100.38 13.8701C101.248 14.7164 101.682 15.8568 101.682 17.2913C101.682 18.7318 101.248 19.8782 100.38 20.7305C99.5121 21.5768 98.3918 22 97.0194 22ZM97.0018 20.3254C97.7819 20.3254 98.4212 20.0463 98.9197 19.4881C99.4183 18.9299 99.6675 18.1976 99.6675 17.2913C99.6675 16.385 99.4183 15.6557 98.9197 15.1035C98.4212 14.5453 97.7819 14.2662 97.0018 14.2662C96.2393 14.2662 95.6117 14.5453 95.119 15.1035C94.6263 15.6557 94.38 16.385 94.38 17.2913C94.38 18.1976 94.6234 18.9299 95.1102 19.4881C95.6029 20.0463 96.2334 20.3254 97.0018 20.3254Z" fill="white"/>
<path d="M107.665 21.991C106.322 21.991 105.222 21.5588 104.366 20.6945C103.509 19.8242 103.081 18.6898 103.081 17.2913C103.081 15.8928 103.509 14.7614 104.366 13.8971C105.228 13.0328 106.328 12.6006 107.665 12.6006C108.726 12.6006 109.63 12.8797 110.375 13.4379C111.125 13.9901 111.621 14.7644 111.861 15.7608L109.979 16.0129C109.809 15.4487 109.518 15.0165 109.108 14.7164C108.703 14.4163 108.216 14.2662 107.647 14.2662C106.902 14.2662 106.292 14.5453 105.817 15.1035C105.342 15.6557 105.105 16.385 105.105 17.2913C105.105 18.1976 105.342 18.9299 105.817 19.4881C106.292 20.0403 106.902 20.3164 107.647 20.3164C108.216 20.3164 108.703 20.1693 109.108 19.8752C109.518 19.5751 109.809 19.143 109.979 18.5788L111.861 18.8219C111.621 19.8182 111.122 20.5955 110.366 21.1537C109.615 21.7119 108.715 21.991 107.665 21.991Z" fill="white"/>
<path d="M119.639 21.8289L116.551 17.8405H115.935V21.8289H113.894V8H115.935V16.346H116.498L119.428 12.7717H121.759L118.231 16.9492L122.155 21.8289H119.639Z" fill="white"/>
<path d="M131.34 17.1473L131.314 17.6695H124.583C124.618 18.5338 124.876 19.194 125.357 19.6502C125.838 20.1063 126.434 20.3344 127.143 20.3344C127.636 20.3344 128.073 20.2114 128.454 19.9653C128.841 19.7192 129.135 19.3681 129.334 18.9119L131.182 19.236C130.877 20.1063 130.366 20.7846 129.651 21.2707C128.935 21.7569 128.105 22 127.161 22C125.783 22 124.677 21.5829 123.844 20.7486C123.011 19.9143 122.595 18.7648 122.595 17.3003C122.595 15.8418 123.011 14.6924 123.844 13.8521C124.677 13.0118 125.762 12.5916 127.099 12.5916C128.372 12.5916 129.396 12.9788 130.17 13.7531C130.944 14.5213 131.334 15.6527 131.34 17.1473ZM127.108 14.1312C126.469 14.1312 125.935 14.2962 125.507 14.6264C125.085 14.9505 124.806 15.4487 124.671 16.1209H129.308C129.231 15.4667 128.997 14.9715 128.604 14.6354C128.211 14.2992 127.712 14.1312 127.108 14.1312Z" fill="white"/>
<path d="M136.557 21.8289C135.759 21.8289 135.138 21.5979 134.692 21.1357C134.246 20.6735 134.023 20.0223 134.023 19.182V14.3923H132.255V12.7717H132.862C133.343 12.7717 133.689 12.6577 133.9 12.4296C134.117 12.1955 134.226 11.7904 134.226 11.2141V9.80965H136.073V12.7717H138V14.3923H136.073V18.9659C136.073 19.3801 136.173 19.6952 136.372 19.9113C136.578 20.1213 136.853 20.2264 137.199 20.2264H138V21.8289H136.557Z" fill="white"/>
</svg>
