<svg width="600" height="424" viewBox="0 0 600 424" fill="none" xmlns="http://www.w3.org/2000/svg">
<g opacity="0.06">
<path d="M88.6758 346.363H221.391V424H0.785156V0.660156H88.6758V346.363Z" fill="#57968B"/>
<path d="M464.555 0.660156C504.984 0.660156 537.504 13.8438 562.113 40.2109C586.723 66.3828 599.027 98.8047 599.027 137.477C599.027 176.734 586.82 209.059 562.406 234.449C537.992 259.645 505.375 272.242 464.555 272.242H376.371V424H288.48V0.660156H464.555ZM449.906 198.707C471.391 198.707 487.504 193.238 498.246 182.301C508.988 171.168 514.359 155.836 514.359 136.305C514.359 117.359 508.891 102.32 497.953 91.1875C487.211 79.8594 471.195 74.1953 449.906 74.1953H376.371V198.707H449.906Z" fill="#4E7FFF"/>
</g>
</svg>
