<svg width="24" height="14" viewBox="0 0 24 14" fill="none" xmlns="http://www.w3.org/2000/svg">
<path d="M0 0.896145C0 0.401158 0.534672 0 1.19423 0H22.8058C23.4653 0 24 0.401158 24 0.896145C24 1.39104 23.4653 1.7922 22.8058 1.7922H1.19423C0.534672 1.7922 0 1.39104 0 0.896145Z" fill="#84CDC1"/>
<path d="M0 6.86978C0 6.37479 0.534672 5.97363 1.19423 5.97363H22.8058C23.4653 5.97363 24 6.37479 24 6.86978C24 7.36468 23.4653 7.76583 22.8058 7.76583H1.19423C0.534672 7.76583 0 7.36468 0 6.86978Z" fill="#84CDC1"/>
<path d="M0 6.86978C0 6.37479 0.534672 5.97363 1.19423 5.97363H22.8058C23.4653 5.97363 24 6.37479 24 6.86978C24 7.36468 23.4653 7.76583 22.8058 7.76583H1.19423C0.534672 7.76583 0 7.36468 0 6.86978Z" fill="#84CDC1"/>
<path d="M0 12.8444C0 12.3494 0.534672 11.9482 1.19423 11.9482H22.8058C23.4653 11.9482 24 12.3494 24 12.8444C24 13.3393 23.4653 13.7404 22.8058 13.7404H1.19423C0.534672 13.7404 0 13.3393 0 12.8444Z" fill="#84CDC1"/>
<path d="M0 12.8444C0 12.3494 0.534672 11.9482 1.19423 11.9482H22.8058C23.4653 11.9482 24 12.3494 24 12.8444C24 13.3393 23.4653 13.7404 22.8058 13.7404H1.19423C0.534672 13.7404 0 13.3393 0 12.8444Z" fill="#84CDC1"/>
</svg>
