<svg width="20" height="20" viewBox="0 0 20 20" fill="none" xmlns="http://www.w3.org/2000/svg">
<path d="M15.7068 10.293C15.6141 10.2 15.5039 10.1263 15.3825 10.076C15.2612 10.0257 15.1312 9.99976 14.9998 9.99976C14.8685 9.99976 14.7385 10.0257 14.6172 10.076C14.4958 10.1263 14.3856 10.2 14.2928 10.293L12.6988 11.887C11.9598 11.667 10.5808 11.167 9.70685 10.293C8.83285 9.41896 8.33285 8.03996 8.11285 7.30096L9.70685 5.70696C9.79979 5.61417 9.87353 5.50397 9.92384 5.38265C9.97415 5.26134 10 5.13129 10 4.99996C10 4.86862 9.97415 4.73858 9.92384 4.61726C9.87353 4.49595 9.79979 4.38575 9.70685 4.29296L5.70685 0.292957C5.61406 0.200011 5.50385 0.126273 5.38254 0.0759627C5.26122 0.0256519 5.13118 -0.000244141 4.99985 -0.000244141C4.86851 -0.000244141 4.73847 0.0256519 4.61715 0.0759627C4.49584 0.126273 4.38563 0.200011 4.29285 0.292957L1.58085 3.00496C1.20085 3.38496 0.986845 3.90696 0.994845 4.43996C1.01785 5.86396 1.39485 10.81 5.29285 14.708C9.19085 18.606 14.1368 18.982 15.5618 19.006H15.5898C16.1178 19.006 16.6168 18.798 16.9948 18.42L19.7068 15.708C19.7998 15.6152 19.8735 15.505 19.9238 15.3837C19.9741 15.2623 20 15.1323 20 15.001C20 14.8696 19.9741 14.7396 19.9238 14.6183C19.8735 14.4969 19.7998 14.3867 19.7068 14.294L15.7068 10.293ZM15.5798 17.005C14.3318 16.984 10.0618 16.649 6.70685 13.293C3.34085 9.92696 3.01485 5.64196 2.99485 4.41896L4.99985 2.41396L7.58585 4.99996L6.29285 6.29296C6.17531 6.41041 6.08889 6.55529 6.0414 6.71453C5.99391 6.87376 5.98684 7.04231 6.02085 7.20496C6.04485 7.31996 6.63185 10.047 8.29185 11.707C9.95185 13.367 12.6788 13.954 12.7938 13.978C12.9564 14.0129 13.1251 14.0064 13.2845 13.9591C13.4439 13.9117 13.5888 13.825 13.7058 13.707L14.9998 12.414L17.5858 15L15.5798 17.005Z" fill="#57968B"/>
</svg>
