<svg width="967" height="1447" viewBox="0 0 967 1447" fill="none" xmlns="http://www.w3.org/2000/svg">
<path d="M483.5 1469L64.7767 726.5L902.223 726.5L483.5 1469Z" fill="#98DCCC"/>
<path fillRule="evenodd" clipRule="evenodd" d="M483.5 967C750.53 967 967 750.53 967 483.5C967 216.47 750.53 0 483.5 0C216.47 0 0 216.47 0 483.5C0 750.53 216.47 967 483.5 967ZM487.5 625C587.74 625 669 543.74 669 443.5C669 343.26 587.74 262 487.5 262C387.26 262 306 343.26 306 443.5C306 543.74 387.26 625 487.5 625Z" fill="#98DCCC"/>
</svg>
