<svg width="200" height="200" viewBox="0 0 200 200" fill="none" xmlns="http://www.w3.org/2000/svg">
<g clip-path="url(#clip0_1019_2234)">
<path d="M100 0C80.1169 0.0263755 61.0556 7.93661 46.9961 21.9961C32.9366 36.0556 25.0264 55.1169 25 75C25 128.844 94.875 196.281 97.8438 199.125C98.4212 199.686 99.1947 200 100 200C100.805 200 101.579 199.686 102.156 199.125C105.125 196.281 175 128.844 175 75C174.974 55.1169 167.063 36.0556 153.004 21.9961C138.944 7.93661 119.883 0.0263755 100 0V0ZM100 109.375C93.2013 109.375 86.5552 107.359 80.9023 103.582C75.2493 99.8046 70.8434 94.436 68.2416 88.1547C65.6399 81.8735 64.9591 74.9619 66.2855 68.2938C67.6119 61.6257 70.8858 55.5006 75.6932 50.6932C80.5006 45.8858 86.6257 42.6119 93.2938 41.2855C99.9619 39.9591 106.874 40.6399 113.155 43.2416C119.436 45.8434 124.805 50.2493 128.582 55.9023C132.359 61.5552 134.375 68.2013 134.375 75C134.37 84.1151 130.746 92.8554 124.301 99.3008C117.855 105.746 109.115 109.37 100 109.375Z" fill="url(#paint0_linear_1019_2234)"/>
<circle cx="100" cy="75" r="56.25" fill="white"/>
<g clip-path="url(#clip1_1019_2234)">
<path d="M86.549 70.4809L86.5466 70.5229C86.384 73.3711 87.9793 76.0393 90.6121 77.3185L90.6391 77.3317C91.5673 77.7757 92.3281 78.5077 92.8081 79.4179L92.8189 79.4377C94.1455 81.9637 96.8893 83.4948 99.8143 83.3412L99.8587 83.3388C100.919 83.2794 101.972 83.553 102.87 84.1218C105.347 85.671 108.491 85.671 110.968 84.1218C111.865 83.553 112.918 83.2794 113.979 83.3388L114.023 83.3412C116.944 83.496 119.691 81.9637 121.021 79.4335L121.027 79.4197C121.509 78.5071 122.272 77.7739 123.203 77.3293L123.224 77.3185C125.857 76.0387 127.453 73.3711 127.29 70.5223L127.287 70.4827C127.233 69.4795 127.512 68.4865 128.081 67.6579C129.718 65.27 129.718 62.1212 128.081 59.7326C127.513 58.9046 127.233 57.9122 127.287 56.909L127.29 56.867C127.453 54.0182 125.857 51.3506 123.222 50.0703L123.198 50.0583C122.272 49.6155 121.513 48.8871 121.032 47.9793L121.018 47.9523C119.691 45.4263 116.944 43.8957 114.023 44.0487L113.978 44.0511C112.918 44.1105 111.865 43.8369 110.968 43.2681H110.967C108.49 41.7189 105.346 41.7189 102.869 43.2681C101.972 43.8363 100.919 44.1099 99.8581 44.0505L99.8137 44.0481C96.8929 43.8933 94.1461 45.4257 92.8195 47.9511L92.8093 47.9697C92.3287 48.8817 91.5673 49.6143 90.6379 50.0589L90.6127 50.0709C87.9799 51.35 86.384 54.0182 86.5472 56.867L86.5496 56.9066C86.6036 57.9098 86.3252 58.9028 85.7564 59.7308C84.119 62.1194 84.119 65.2688 85.7564 67.6567C86.3246 68.4847 86.6036 69.4777 86.549 70.4809ZM87.7789 61.1264C88.6567 59.8484 89.0869 58.316 89.0029 56.768L89.0005 56.726C88.9141 54.8384 89.9737 53.0852 91.6843 52.283L91.7053 52.2728C93.1087 51.6008 94.2577 50.4944 94.9825 49.1181L94.9945 49.0953C95.8759 47.4165 97.7221 46.3989 99.6829 46.5033L99.7261 46.5051C101.295 46.5933 102.852 46.1889 104.179 45.3477C105.855 44.2995 107.981 44.2995 109.657 45.3477C110.984 46.1877 112.541 46.5927 114.11 46.5057L114.153 46.5033C116.123 46.4001 117.961 47.4165 118.84 49.0905L118.856 49.1211C119.581 50.4956 120.728 51.6002 122.13 52.2716L122.15 52.2818C123.888 53.1266 124.943 54.8708 124.837 56.7266L124.834 56.7704C124.75 58.3184 125.181 59.8502 126.059 61.1282C127.119 62.6756 127.119 64.7156 126.058 66.2624C125.18 67.5409 124.75 69.0733 124.834 70.6213L124.837 70.6627C124.943 72.5185 123.888 74.2633 122.15 75.1087L122.132 75.1171C120.727 75.7903 119.577 76.8979 118.852 78.2767L118.843 78.2947C117.961 79.9735 116.117 80.9917 114.154 80.8867L114.111 80.8843C112.542 80.7967 110.984 81.2017 109.657 82.0423C107.981 83.0898 105.855 83.0898 104.18 82.0423C102.973 81.2773 101.572 80.8717 100.143 80.8729C100.004 80.8729 99.8653 80.8765 99.7261 80.8843L99.6829 80.8861C97.7479 81.0091 95.9173 79.9963 94.9927 78.2917L94.9801 78.2683C94.2565 76.8943 93.1093 75.7903 91.7083 75.1189L91.6855 75.1075C89.9473 74.2627 88.8925 72.5179 88.9993 70.6627L89.0017 70.6189C89.0851 69.0709 88.6543 67.5385 87.7771 66.2612C86.717 64.7138 86.7176 62.6738 87.7789 61.1276V61.1264Z" fill="#4BBEC1"/>
<path d="M98.9901 76.3981C99.5655 76.7575 100.323 76.5817 100.683 76.0063L115.239 52.6869C115.477 52.3143 115.497 51.8427 115.29 51.4521C115.084 51.0609 114.683 50.8113 114.241 50.7975C113.8 50.7837 113.385 51.0081 113.154 51.3855L98.5983 74.7049C98.2389 75.2809 98.4141 76.0387 98.9901 76.3981Z" fill="#4BBEC1"/>
<path d="M100.294 63.7555C103.286 63.7555 105.721 60.9793 105.721 57.5672C105.721 54.155 103.286 51.3794 100.294 51.3794C97.3019 51.3794 94.8677 54.155 94.8677 57.5672C94.8677 60.9793 97.3019 63.7555 100.294 63.7555ZM100.294 53.837C101.931 53.837 103.263 55.5104 103.263 57.5672C103.263 59.6239 101.931 61.2979 100.294 61.2979C98.6573 61.2979 97.3253 59.6233 97.3253 57.5672C97.3253 55.511 98.6573 53.837 100.294 53.837Z" fill="#4BBEC1"/>
<path d="M108.116 69.824C108.116 73.2362 110.55 76.0118 113.542 76.0118C116.534 76.0118 118.969 73.2356 118.969 69.824C118.969 66.413 116.535 63.6362 113.543 63.6362C110.55 63.6362 108.116 66.4112 108.116 69.824ZM116.511 69.824C116.511 71.8808 115.179 73.5542 113.542 73.5542C111.905 73.5542 110.573 71.8808 110.573 69.824C110.573 67.7672 111.905 66.0938 113.542 66.0938C115.179 66.0938 116.511 67.766 116.511 69.824Z" fill="#4BBEC1"/>
<path d="M132.84 90.2287C131.213 87.3409 127.605 86.2411 124.644 87.7303L115.018 92.2783C113.689 89.8069 111.14 88.2337 108.334 88.1545L99.4483 87.9097C98.0413 87.8695 96.6607 87.5125 95.4097 86.8669L94.5055 86.3983C89.8759 83.9851 84.3578 83.9911 79.733 86.4139L79.7894 84.3655C79.808 83.6869 79.2734 83.1217 78.5948 83.1031L68.8509 82.8349C68.1723 82.8163 67.6077 83.3509 67.5891 84.0295L67.0005 105.413C66.9819 106.091 67.5165 106.657 68.1951 106.675L77.939 106.943H77.9732C78.6386 106.943 79.1828 106.413 79.2014 105.748L79.229 104.725L81.7604 103.37C82.754 102.835 83.9162 102.708 85.0016 103.015L100.117 107.258C100.144 107.266 100.17 107.272 100.197 107.278C101.29 107.506 102.403 107.621 103.52 107.62C105.884 107.621 108.22 107.112 110.369 106.126C110.422 106.102 110.473 106.074 110.521 106.043L132.438 91.8655C132.984 91.5127 133.161 90.7945 132.84 90.2287ZM69.4911 104.252L70.0119 85.3261L77.2994 85.5265L76.778 104.453L69.4911 104.252ZM109.261 103.93C106.592 105.134 103.61 105.467 100.741 104.88L85.6658 100.649C83.9696 100.169 82.1528 100.369 80.6006 101.203L79.307 101.896L79.6538 89.3119C83.7524 86.5855 89.0095 86.3053 93.3751 88.5799L94.2793 89.0485C95.8597 89.8645 97.6033 90.3151 99.3811 90.3661L108.267 90.6109C110.763 90.6823 112.883 92.4595 113.389 94.9051L100.153 94.5409C99.4747 94.5223 98.9101 95.0569 98.8915 95.7355C98.8729 96.4141 99.4075 96.9793 100.086 96.9979L114.693 97.3999H114.728C115.393 97.3993 115.937 96.8695 115.955 96.2047C115.97 95.6707 115.93 95.1361 115.837 94.6105L125.708 89.9455L125.736 89.9317C127.137 89.2225 128.831 89.4595 129.982 90.5257L109.261 103.93Z" fill="#4BBEC1"/>
</g>
</g>
<defs>
<linearGradient id="paint0_linear_1019_2234" x1="53.75" y1="11.875" x2="163.75" y2="178.125" gradientUnits="userSpaceOnUse">
<stop stop-color="#4BBCC2"/>
<stop offset="1" stop-color="#3FD1B0"/>
</linearGradient>
<clipPath id="clip0_1019_2234">
<rect width="200" height="200" fill="white"/>
</clipPath>
<clipPath id="clip1_1019_2234">
<rect width="66" height="66" fill="white" transform="translate(67 42)"/>
</clipPath>
</defs>
</svg>
