<svg width="200" height="200" viewBox="0 0 200 200" fill="none" xmlns="http://www.w3.org/2000/svg">
<g clip-path="url(#clip0_1019_2209)">
<path d="M100 0C80.1169 0.0263755 61.0556 7.93661 46.9961 21.9961C32.9366 36.0556 25.0264 55.1169 25 75C25 128.844 94.875 196.281 97.8438 199.125C98.4212 199.686 99.1947 200 100 200C100.805 200 101.579 199.686 102.156 199.125C105.125 196.281 175 128.844 175 75C174.974 55.1169 167.063 36.0556 153.004 21.9961C138.944 7.93661 119.883 0.0263755 100 0V0ZM100 109.375C93.2013 109.375 86.5552 107.359 80.9023 103.582C75.2493 99.8046 70.8434 94.436 68.2416 88.1547C65.6399 81.8735 64.9591 74.9619 66.2855 68.2938C67.6119 61.6257 70.8858 55.5006 75.6932 50.6932C80.5006 45.8858 86.6257 42.6119 93.2938 41.2855C99.9619 39.9591 106.874 40.6399 113.155 43.2416C119.436 45.8434 124.805 50.2493 128.582 55.9023C132.359 61.5552 134.375 68.2013 134.375 75C134.37 84.1151 130.746 92.8554 124.301 99.3008C117.855 105.746 109.115 109.37 100 109.375Z" fill="url(#paint0_linear_1019_2209)"/>
<circle cx="100" cy="75" r="56.25" fill="white"/>
<path d="M90.7188 47.4375H88.6562V49.5H90.7188V47.4375Z" fill="#008DFF"/>
<path d="M101.031 47.4375H92.7812V49.5H101.031V47.4375Z" fill="#008DFF"/>
<path d="M125.781 88.6875C124.81 88.6836 123.87 89.0275 123.131 89.6569C122.763 89.0473 122.245 88.5428 121.625 88.1924C121.005 87.8419 120.306 87.6572 119.594 87.6562C118.623 87.6523 117.683 87.9962 116.944 88.6256C116.582 88.0272 116.075 87.5304 115.469 87.1819V50.5312C115.467 48.6174 114.705 46.7825 113.352 45.4292C111.999 44.0759 110.164 43.3147 108.25 43.3125H85.5626C83.6487 43.3147 81.8139 44.0759 80.4606 45.4292C79.1073 46.7825 78.346 48.6174 78.3438 50.5312V69.3619C77.672 69.5801 77.0523 69.9345 76.5236 70.4029C75.9948 70.8713 75.5683 71.4437 75.2707 72.0844L71.1354 81.0459C70.4434 82.5349 70.0878 84.1581 70.0938 85.8V105.187H72.1563V85.8C72.1525 84.4569 72.4448 83.1295 73.0123 81.9122L77.1476 72.9506C77.4053 72.4035 77.8223 71.947 78.3438 71.6409V89.7187C78.3452 90.0607 78.3728 90.402 78.4263 90.7397L77.7663 91.8844L79.5504 92.9156L85.7379 82.2009C85.872 81.9653 86.0512 81.7583 86.2653 81.592C86.4794 81.4257 86.7242 81.3032 86.9857 81.2316C87.5153 81.0961 88.0767 81.1699 88.5532 81.4378C89.0263 81.714 89.3709 82.1661 89.512 82.6955C89.653 83.2248 89.579 83.7885 89.306 84.2634L84.6654 92.2969C84.5757 92.458 84.5295 92.6398 84.5313 92.8242C84.5332 93.0086 84.5829 93.1894 84.6757 93.3487L86.8929 97.02C87.3689 97.8224 87.6216 98.7374 87.6251 99.6703V105.177H89.6876V99.6703C89.6826 98.7327 89.497 97.8049 89.141 96.9375H95.4007C95.491 97.3114 95.6296 97.672 95.8132 98.01L100.258 105.703L102.042 104.672L97.5973 96.9787C97.448 96.744 97.3478 96.4815 97.3027 96.207C97.2575 95.9325 97.2684 95.6518 97.3346 95.3816C97.4007 95.1114 97.5209 94.8574 97.6878 94.6348C97.8547 94.4123 98.0648 94.2258 98.3057 94.0866C98.5465 93.9474 98.813 93.8584 99.0891 93.8248C99.3653 93.7913 99.6453 93.8139 99.9125 93.8914C100.18 93.9689 100.428 94.0997 100.644 94.2758C100.859 94.4519 101.036 94.6698 101.165 94.9162L103.228 98.4844C103.344 98.6801 103.52 98.8331 103.73 98.9204C103.94 99.0078 104.173 99.0248 104.393 98.9691C104.613 98.9099 104.807 98.7797 104.945 98.5988C105.083 98.4178 105.157 98.1963 105.156 97.9687V80.4375C105.156 79.8905 105.374 79.3659 105.76 78.9791C106.147 78.5923 106.672 78.375 107.219 78.375C107.766 78.375 108.29 78.5923 108.677 78.9791C109.064 79.3659 109.281 79.8905 109.281 80.4375V94.875C109.281 95.1485 109.39 95.4108 109.583 95.6042C109.777 95.7976 110.039 95.9062 110.313 95.9062C110.586 95.9062 110.848 95.7976 111.042 95.6042C111.235 95.4108 111.344 95.1485 111.344 94.875V90.75C111.344 90.203 111.561 89.6784 111.948 89.2916C112.335 88.9048 112.859 88.6875 113.406 88.6875C113.953 88.6875 114.478 88.9048 114.865 89.2916C115.252 89.6784 115.469 90.203 115.469 90.75V94.875C115.469 95.1485 115.577 95.4108 115.771 95.6042C115.964 95.7976 116.227 95.9062 116.5 95.9062C116.774 95.9062 117.036 95.7976 117.229 95.6042C117.423 95.4108 117.531 95.1485 117.531 94.875V91.7812C117.531 91.2342 117.749 90.7096 118.135 90.3228C118.522 89.936 119.047 89.7187 119.594 89.7187C120.141 89.7187 120.665 89.936 121.052 90.3228C121.439 90.7096 121.656 91.2342 121.656 91.7812V94.875C121.656 95.1485 121.765 95.4108 121.958 95.6042C122.152 95.7976 122.414 95.9062 122.688 95.9062C122.961 95.9062 123.223 95.7976 123.417 95.6042C123.61 95.4108 123.719 95.1485 123.719 94.875V92.8125C123.719 92.2655 123.936 91.7409 124.323 91.3541C124.71 90.9673 125.234 90.75 125.781 90.75C126.328 90.75 126.853 90.9673 127.24 91.3541C127.627 91.7409 127.844 92.2655 127.844 92.8125V105.187H129.906V92.8125C129.906 91.7185 129.472 90.6693 128.698 89.8957C127.925 89.1221 126.875 88.6875 125.781 88.6875ZM98.9688 90.75H94.8438C94.5703 90.75 94.308 90.6413 94.1146 90.4479C93.9212 90.2546 93.8126 89.9922 93.8126 89.7187C93.8126 89.4452 93.9212 89.1829 94.1146 88.9895C94.308 88.7961 94.5703 88.6875 94.8438 88.6875H98.9688C99.2423 88.6875 99.5046 88.7961 99.698 88.9895C99.8914 89.1829 100 89.4452 100 89.7187C100 89.9922 99.8914 90.2546 99.698 90.4479C99.5046 90.6413 99.2423 90.75 98.9688 90.75ZM113.406 86.625C112.682 86.6257 111.97 86.8178 111.344 87.1819V80.4375C111.344 79.3435 110.909 78.2943 110.136 77.5207C109.362 76.7471 108.313 76.3125 107.219 76.3125C106.125 76.3125 105.076 76.7471 104.302 77.5207C103.528 78.2943 103.094 79.3435 103.094 80.4375V94.1222L102.96 93.885C102.493 93.076 101.76 92.4531 100.887 92.1216C101.252 91.8362 101.548 91.4716 101.751 91.0554C101.955 90.6392 102.061 90.1821 102.063 89.7187C102.06 88.899 101.733 88.1135 101.154 87.5338C100.574 86.9542 99.7886 86.6274 98.9688 86.625H94.8438C94.0233 86.625 93.2364 86.9509 92.6562 87.5311C92.076 88.1113 91.7501 88.8982 91.7501 89.7187C91.7501 90.5393 92.076 91.3262 92.6562 91.9064C93.2364 92.4865 94.0233 92.8125 94.8438 92.8125H96.7104C96.0737 93.3503 95.6167 94.07 95.4007 94.875H88.0066L86.7588 92.8022L91.1004 85.2947C91.6474 84.347 91.7955 83.2208 91.5122 82.1639C91.2289 81.107 90.5373 80.2059 89.5896 79.6589C88.6419 79.1119 87.5157 78.9638 86.4588 79.2471C85.4019 79.5304 84.5008 80.222 83.9538 81.1697L80.4063 87.3056V50.5312C80.4063 49.1637 80.9496 47.8522 81.9166 46.8852C82.8835 45.9182 84.1951 45.375 85.5626 45.375H108.25C109.618 45.375 110.929 45.9182 111.896 46.8852C112.863 47.8522 113.406 49.1637 113.406 50.5312V86.625Z" fill="#008DFF"/>
<path d="M104.125 60.8438H101.031V59.8125C101.031 58.7185 100.597 57.6693 99.8231 56.8957C99.0495 56.1221 98.0003 55.6875 96.9062 55.6875C95.8122 55.6875 94.763 56.1221 93.9894 56.8957C93.2158 57.6693 92.7812 58.7185 92.7812 59.8125V60.8438H89.6875C89.414 60.8438 89.1517 60.9524 88.9583 61.1458C88.7649 61.3392 88.6562 61.6015 88.6562 61.875V74.25C88.6587 75.0698 88.9854 75.8552 89.5651 76.4349C90.1448 77.0146 90.9302 77.3413 91.75 77.3438H102.062C102.882 77.3413 103.668 77.0146 104.247 76.4349C104.827 75.8552 105.154 75.0698 105.156 74.25V61.875C105.156 61.6015 105.048 61.3392 104.854 61.1458C104.661 60.9524 104.399 60.8438 104.125 60.8438ZM94.8438 59.8125C94.8438 59.2655 95.061 58.7409 95.4478 58.3541C95.8346 57.9673 96.3592 57.75 96.9062 57.75C97.4533 57.75 97.9779 57.9673 98.3647 58.3541C98.7515 58.7409 98.9688 59.2655 98.9688 59.8125V60.8438H94.8438V59.8125ZM103.094 74.25C103.094 74.5235 102.985 74.7858 102.792 74.9792C102.598 75.1726 102.336 75.2812 102.062 75.2812H91.75C91.4765 75.2812 91.2142 75.1726 91.0208 74.9792C90.8274 74.7858 90.7188 74.5235 90.7188 74.25V73.2188H103.094V74.25ZM103.094 71.1562H90.7188V62.9062H92.7812V64.9688H94.8438V62.9062H98.9688V64.9688H101.031V62.9062H103.094V71.1562Z" fill="#008DFF"/>
</g>
<defs>
<linearGradient id="paint0_linear_1019_2209" x1="53.75" y1="11.875" x2="163.75" y2="178.125" gradientUnits="userSpaceOnUse">
<stop stop-color="#00BFFF"/>
<stop offset="1" stop-color="#007FFF"/>
</linearGradient>
<clipPath id="clip0_1019_2209">
<rect width="200" height="200" fill="white"/>
</clipPath>
</defs>
</svg>
