<svg width="200" height="200" viewBox="0 0 200 200" fill="none" xmlns="http://www.w3.org/2000/svg">
<g clip-path="url(#clip0_1019_2221)">
<path d="M100 0C80.1169 0.0263755 61.0556 7.93661 46.9961 21.9961C32.9366 36.0556 25.0264 55.1169 25 75C25 128.844 94.875 196.281 97.8438 199.125C98.4212 199.686 99.1947 200 100 200C100.805 200 101.579 199.686 102.156 199.125C105.125 196.281 175 128.844 175 75C174.974 55.1169 167.063 36.0556 153.004 21.9961C138.944 7.93661 119.883 0.0263755 100 0V0ZM100 109.375C93.2013 109.375 86.5552 107.359 80.9023 103.582C75.2493 99.8046 70.8434 94.436 68.2416 88.1547C65.6399 81.8735 64.9591 74.9619 66.2855 68.2938C67.6119 61.6257 70.8858 55.5006 75.6932 50.6932C80.5006 45.8858 86.6257 42.6119 93.2938 41.2855C99.9619 39.9591 106.874 40.6399 113.155 43.2416C119.436 45.8434 124.805 50.2493 128.582 55.9023C132.359 61.5552 134.375 68.2013 134.375 75C134.37 84.1151 130.746 92.8554 124.301 99.3008C117.855 105.746 109.115 109.37 100 109.375Z" fill="url(#paint0_linear_1019_2221)"/>
<circle cx="100" cy="75" r="56.25" fill="white"/>
<path d="M132.881 93.7568C132.571 92.2664 131.695 90.9929 130.413 90.1706C129.132 89.3488 127.61 89.0835 126.125 89.4229L119.246 90.9979V88.1857C120.626 86.886 122.062 85.1891 123.084 83.6382C124.875 80.9186 126.143 77.9321 126.852 74.7633C127.695 70.9933 127.713 67.0022 126.904 63.2202C126.755 62.5243 126.07 62.0801 125.374 62.2297C124.677 62.3782 124.234 63.0636 124.383 63.7599C125.115 67.1805 125.099 70.7909 124.336 74.2003C123.696 77.0635 122.55 79.7619 120.931 82.2197C120.451 82.9483 119.869 83.7127 119.246 84.4429V70.1544C119.246 69.4424 118.669 68.8653 117.957 68.8653H107.76V55.0996C107.76 54.3896 107.185 53.813 106.475 53.8105L94.9888 53.7717C94.9873 53.7717 94.9863 53.7717 94.9847 53.7717C94.6433 53.7717 94.316 53.9067 94.0748 54.1479C93.8321 54.3896 93.6957 54.7179 93.6957 55.0608V62.2216H83.497C82.7855 62.2216 82.2079 62.7987 82.2079 63.5107V76.2759H79.3357V74.5251C79.3357 73.8136 78.7587 73.2366 78.0467 73.2366H76.7244C76.4993 71.9974 76.3689 70.7385 76.3382 69.4817C76.2626 66.4257 76.747 63.4357 77.7773 60.5937C78.0175 59.931 78.2904 59.2704 78.588 58.6309C78.8886 57.9854 78.6086 57.2185 77.9636 56.9178C77.318 56.6182 76.5511 56.8972 76.251 57.5427C75.9212 58.2507 75.6191 58.9819 75.3537 59.715C74.2137 62.8596 73.6779 66.1674 73.7605 69.5451C73.7912 70.7798 73.9091 72.0155 74.109 73.2366H68.2891C67.5771 73.2366 67 73.8136 67 74.5256V97.1839C67 97.8959 67.5771 98.473 68.2891 98.473H78.0467C78.7587 98.473 79.3357 97.8959 79.3357 97.1839V95.9583H84.1848L103.827 103.662C105.661 104.382 107.582 104.744 109.513 104.744C110.801 104.744 112.094 104.583 113.367 104.259L128.763 100.346C131.686 99.6034 133.494 96.7091 132.881 93.7568ZM116.668 71.4435V91.5881L113.222 92.3771C112.851 92.4617 112.477 92.5287 112.1 92.5811C110.664 92.779 109.199 92.7372 107.778 92.4557C107.772 92.4542 107.766 92.4532 107.76 92.4517V90.4969C108.742 89.0306 109.068 87.1715 108.553 85.4746C108.41 85.0013 108.206 84.5446 107.946 84.1231C107.887 84.0274 107.826 83.9338 107.762 83.8421C107.762 83.8406 107.761 83.8396 107.76 83.8381V71.443H116.668V71.4435ZM96.2738 56.3544L105.182 56.3841V81.7907L100.203 79.7302L96.2738 78.1033V56.3544ZM84.786 64.7998H93.6942V77.0353L92.0954 76.3736C91.9388 76.3087 91.7711 76.2754 91.6025 76.2754H84.786V64.7998ZM76.7576 95.8949H69.5781V75.8142H75.6599C75.6624 75.8142 75.6654 75.8147 75.6684 75.8147C75.671 75.8147 75.673 75.8142 75.6755 75.8142H76.7576V95.8949ZM128.128 97.8476L112.733 101.761C110.075 102.436 107.321 102.263 104.769 101.263L84.8993 93.4693C84.7493 93.4104 84.5897 93.3807 84.4285 93.3807H79.3357V78.8541H91.3457L99.6863 82.3063L104.25 84.1956C105.865 84.8653 106.638 86.7596 105.976 88.3725C105.843 88.6963 105.678 89.0039 105.46 89.2784C104.653 90.297 103.324 90.7462 102.081 90.444C102.071 90.4415 102.061 90.439 102.051 90.4365C101.976 90.4179 101.902 90.3962 101.829 90.372L93.1554 87.0376C93.0849 87.0104 93.0476 86.9963 93.0476 86.9963C92.3835 86.7405 91.6377 87.0723 91.3819 87.737C91.1266 88.4012 91.4579 89.1474 92.1226 89.4027C92.1226 89.4027 97.013 91.2829 100.742 92.7211C100.817 92.7503 100.892 92.7775 100.967 92.8026L103.83 93.9039C104.696 94.2367 105.558 94.568 106.458 94.7982C107.988 95.1889 109.576 95.346 111.153 95.2599C112.042 95.2116 112.93 95.0887 113.798 94.8903L118.245 93.8727C118.249 93.8716 118.254 93.8696 118.258 93.8686L126.701 91.936C127.504 91.7522 128.328 91.8958 129.021 92.3404C129.715 92.7855 130.189 93.4749 130.356 94.2815C130.689 95.8793 129.71 97.4458 128.128 97.8476Z" fill="#008BFF"/>
<path d="M83.4847 51.1685C83.7928 51.1685 84.102 51.0587 84.3482 50.8361C86.6484 48.7585 89.3952 47.1014 92.2931 46.0434C95.4327 44.8974 98.8744 44.4084 102.247 44.63C104.66 44.7886 107.025 45.3037 109.274 46.1607C109.939 46.414 110.684 46.0807 110.938 45.415C111.191 44.7498 110.858 44.0051 110.192 43.7518C107.702 42.8031 105.086 42.2331 102.416 42.0574C98.6885 41.8127 94.8823 42.3535 91.4089 43.6219C88.2028 44.7921 85.164 46.6255 82.6206 48.9227C82.0919 49.4 82.0506 50.2153 82.5279 50.7435C82.7822 51.0254 83.1327 51.1685 83.4847 51.1685Z" fill="#008BFF"/>
<path d="M112.747 60.3682C112.992 60.5802 113.293 60.6839 113.592 60.6839C113.952 60.6839 114.311 60.5339 114.566 60.2408L125.172 48.0325C125.639 47.4952 125.582 46.681 125.044 46.2142C124.506 45.7474 123.693 45.8043 123.226 46.3416L112.62 58.5499C112.153 59.0872 112.21 59.9014 112.747 60.3682Z" fill="#008BFF"/>
<path d="M122.252 54.8569C120.467 54.8569 119.016 56.3086 119.016 58.0932C119.016 59.8777 120.467 61.3294 122.252 61.3294C124.036 61.3294 125.488 59.8772 125.488 58.0932C125.488 56.3086 124.036 54.8569 122.252 54.8569ZM122.252 58.7513C121.889 58.7513 121.594 58.4562 121.594 58.0932C121.594 57.7306 121.889 57.4351 122.252 57.4351C122.614 57.4351 122.91 57.7306 122.91 58.0932C122.91 58.4562 122.614 58.7513 122.252 58.7513Z" fill="#008BFF"/>
<path d="M115.093 51.9872C116.877 51.9872 118.329 50.5354 118.329 48.7509C118.329 46.9664 116.877 45.5146 115.093 45.5146C113.308 45.5146 111.856 46.9664 111.856 48.7509C111.856 50.5354 113.308 51.9872 115.093 51.9872ZM115.093 48.0923C115.456 48.0923 115.751 48.3878 115.751 48.7509C115.751 49.1134 115.456 49.409 115.093 49.409C114.73 49.409 114.435 49.1134 114.435 48.7509C114.435 48.3878 114.73 48.0923 115.093 48.0923Z" fill="#008BFF"/>
<path d="M78.902 54.1977C79.1084 54.6932 79.6165 55.0205 80.1548 54.9923C80.687 54.9646 81.1533 54.6046 81.318 54.099C81.4841 53.589 81.3029 53.0079 80.8764 52.6821C80.4418 52.3507 79.8315 52.3301 79.3763 52.6327C78.8713 52.9686 78.6688 53.6383 78.902 54.1977Z" fill="#008BFF"/>
</g>
<defs>
<linearGradient id="paint0_linear_1019_2221" x1="53.75" y1="11.875" x2="163.75" y2="178.125" gradientUnits="userSpaceOnUse">
<stop stop-color="#00BFFF"/>
<stop offset="1" stop-color="#007FFF"/>
</linearGradient>
<clipPath id="clip0_1019_2221">
<rect width="200" height="200" fill="white"/>
</clipPath>
</defs>
</svg>
