<svg  viewBox="0 0 210 248" preserveAspectRatio="xMidYMid slice">
                        <g clipPath="url(#clip0_591_356)">
                        <path d="M149.344 208.117L151.421 248C151.421 248 63.5541 164.372 52.6074 139.904C41.6608 115.435 62.2662 54.9082 62.2662 54.9082L107.985 80.0205L149.344 208.117Z" fill="#9F616A"/>
                        <path d="M14.6155 38.167L1.09319 39.4548C1.09319 39.4548 -5.98995 54.9085 15.9034 56.1964L14.6155 38.167Z" fill="#9F616A"/>
                        <path d="M14.6155 61.9912L1.09319 63.279C1.09319 63.279 -5.98995 78.7328 15.9034 80.0206L14.6155 61.9912Z" fill="#9F616A"/>
                        <path d="M14.6155 87.748L1.09319 89.0359C1.09319 89.0359 -5.98995 104.49 15.9034 105.777L14.6155 87.748Z" fill="#9F616A"/>
                        <path d="M18.4788 113.504L4.95647 114.792C4.95647 114.792 -2.12668 130.245 19.7666 131.533L18.4788 113.504Z" fill="#9F616A"/>
                        <path d="M8.0332 44.3752H9.05925V16.2678C9.05924 14.1315 9.48003 12.0161 10.2976 10.0424C11.1151 8.06869 12.3134 6.27534 13.8241 4.76474C15.3347 3.25413 17.1281 2.05585 19.1018 1.23832C21.0756 0.420785 23.191 1.63676e-06 25.3274 0H84.8781C87.0145 -4.36457e-06 89.1299 0.420772 91.1037 1.2383C93.0774 2.05583 94.8708 3.2541 96.3815 4.76471C97.8921 6.27531 99.0904 8.06865 99.908 10.0423C100.726 12.016 101.146 14.1314 101.146 16.2678V170.467C101.146 172.603 100.726 174.719 99.908 176.693C99.0904 178.666 97.8921 180.46 96.3815 181.97C94.8708 183.481 93.0775 184.679 91.1037 185.497C89.13 186.314 87.0145 186.735 84.8782 186.735H25.3275C21.0129 186.735 16.875 185.021 13.8241 181.97C10.7732 178.919 9.05927 174.782 9.05926 170.467V64.3825H8.0332V44.3752Z" fill="#3F3D56"/>
                        <path d="M24.6704 4.23243H32.4437C32.0862 5.10883 31.9498 6.05968 32.0464 7.00123C32.143 7.94278 32.4696 8.84613 32.9976 9.6317C33.5255 10.4173 34.2386 11.061 35.0739 11.5061C35.9092 11.9511 36.8412 12.184 37.7877 12.1841H71.9036C72.8501 12.184 73.782 11.9511 74.6174 11.5061C75.4527 11.061 76.1658 10.4173 76.6937 9.63171C77.2217 8.84614 77.5483 7.94278 77.6449 7.00123C77.7415 6.05968 77.605 5.10882 77.2476 4.23242H84.5079C87.73 4.23242 90.8201 5.51235 93.0984 7.79066C95.3768 10.069 96.6568 13.159 96.6568 16.381V170.354C96.6568 171.95 96.3425 173.529 95.732 175.003C95.1214 176.477 94.2266 177.816 93.0984 178.945C91.9703 180.073 90.631 180.968 89.1571 181.578C87.6831 182.189 86.1033 182.503 84.5079 182.503H24.6704C23.075 182.503 21.4952 182.189 20.0212 181.578C18.5472 180.968 17.2079 180.073 16.0798 178.945C14.9517 177.816 14.0568 176.477 13.4463 175.003C12.8357 173.529 12.5215 171.95 12.5215 170.354V16.381C12.5215 14.7856 12.8357 13.2059 13.4463 11.732C14.0568 10.258 14.9517 8.91877 16.0798 7.79067C17.2079 6.66257 18.5472 5.76771 20.0212 5.15718C21.4952 4.54666 23.075 4.23243 24.6704 4.23243Z" fill="white"/>
                        <path d="M67.4097 47.3682H41.7695V53.5552H67.4097V47.3682Z" fill="#84CDC1"/>
                        <path d="M68.6303 73.9531H40.5488V80.1402H68.6303V73.9531Z" fill="#E5E5E5"/>
                        <path d="M85.9272 87.2441H23.252V93.4312H85.9272V87.2441Z" fill="#E5E5E5"/>
                        <path d="M85.9272 100.534H23.252V106.721H85.9272V100.534Z" fill="#E5E5E5"/>
                        <path d="M210 228.89L137.927 146.665L135.351 93.8652L108.306 48.7918L100.579 29.4746C100.579 29.4746 82.5494 31.4063 97.3596 68.109L103.477 87.7481C97.9626 99.6246 95.1059 112.561 95.1059 125.655V170.658C95.1059 181.255 145.605 238.976 151.483 247.793L210 228.89Z" fill="#9F616A"/>
                        <path opacity="0.2" d="M102.699 52.6109L108.075 49.9687L107.892 49.5956L102.924 52.0372L95.4251 32.377L95.0371 32.5253L102.699 52.6109Z" fill="black"/>
                        <path opacity="0.2" d="M1.16511 39.2595L1.02148 39.6494L8.98617 42.5833L9.12979 42.1934L1.16511 39.2595Z" fill="black"/>
                        <path opacity="0.2" d="M1.16511 63.3552L1.02148 63.7451L8.98617 66.679L9.12979 66.2891L1.16511 63.3552Z" fill="black"/>
                        <path opacity="0.2" d="M1.16511 89.113L1.02148 89.5029L8.98617 92.4368L9.12979 92.0469L1.16511 89.113Z" fill="black"/>
                        <path opacity="0.2" d="M5.33794 114.878L5.1582 115.253L9.03587 117.114L9.21561 116.74L5.33794 114.878Z" fill="black"/>
                        <path d="M54.6204 160.116C64.5396 160.116 72.5806 152.075 72.5806 142.156C72.5806 132.237 64.5396 124.196 54.6204 124.196C44.7012 124.196 36.6602 132.237 36.6602 142.156C36.6602 152.075 44.7012 160.116 54.6204 160.116Z" fill="#84CDC1"/>
                        <path d="M52.9084 149.737L47.5332 142.825L50.6591 140.394L53.2042 143.667L61.8029 134.59L64.6783 137.314L52.9084 149.737Z" fill="white"/>
                        </g>
                        <defs>
                        <clipPath id="clip0_591_356">
                        <rect width="210" height="248" fill="white"/>
                        </clipPath>
                        </defs>
                    </svg>
