<svg width="52" height="52" viewBox="0 0 52 52" fill="none" xmlns="http://www.w3.org/2000/svg">
<circle cx="26" cy="26" r="25" stroke="#57968B" stroke-width="2"/>
<path d="M37.6425 18.9371C36.8075 19.3071 35.9105 19.5571 34.9675 19.6701C35.9405 19.0879 36.6685 18.1715 37.0155 17.0921C36.1014 17.6351 35.1009 18.0173 34.0575 18.2221C33.3559 17.4729 32.4266 16.9764 31.4138 16.8096C30.4011 16.6427 29.3616 16.8149 28.4568 17.2993C27.5519 17.7838 26.8323 18.5534 26.4097 19.4888C25.9871 20.4241 25.8851 21.4728 26.1195 22.4721C24.2672 22.3791 22.4552 21.8976 20.8009 21.059C19.1467 20.2203 17.6874 19.0432 16.5175 17.6041C16.1175 18.2941 15.8875 19.0941 15.8875 19.9461C15.8871 20.7131 16.076 21.4683 16.4374 22.1448C16.7988 22.8213 17.3217 23.3981 17.9595 23.8241C17.2198 23.8005 16.4964 23.6007 15.8495 23.2411V23.3011C15.8494 24.3768 16.2216 25.4195 16.9027 26.2521C17.5839 27.0847 18.5321 27.656 19.5865 27.8691C18.9003 28.0548 18.1809 28.0821 17.4825 27.9491C17.78 28.8747 18.3595 29.6841 19.1399 30.264C19.9203 30.8439 20.8624 31.1653 21.8345 31.1831C20.1844 32.4785 18.1464 33.1812 16.0485 33.1781C15.6769 33.1782 15.3056 33.1565 14.9365 33.1131C17.066 34.4823 19.5449 35.2089 22.0765 35.2061C30.6465 35.2061 35.3315 28.1081 35.3315 21.9521C35.3315 21.7521 35.3265 21.5501 35.3175 21.3501C36.2288 20.6911 37.0154 19.875 37.6405 18.9401L37.6425 18.9371Z" fill="#57968B"/>
</svg>
